<svg xmlns="http://www.w3.org/2000/svg" width="72" height="84" viewBox="0 0 72 84" fill="none"><g clip-path="url(#clip0_3325_3358)"><mask id="mask0_3325_3358" style="mask-type:luminance" maskUnits="userSpaceOnUse" x="0" y="-2" width="72" height="86"><path d="M72 47.5887C72 67.507 55.8825 83.6535 36 83.6535C16.1175 83.6535 0 67.507 0 47.5887C0 27.6704 16.1175 -2 36 -2C55.8825 -2 72 27.6704 72 47.5887Z" fill="white"></path></mask><g mask="url(#mask0_3325_3358)"><path d="M36 83.6535C55.8823 83.6535 72 67.5067 72 47.5886C72 27.6706 55.8823 11.5238 36 11.5238C16.1178 11.5238 0 27.6706 0 47.5886C0 67.5067 16.1178 83.6535 36 83.6535Z" fill="#FFE9D9"></path><path d="M18.7243 31.3675C18.7243 31.3675 25.0403 27.8457 34.313 25.3126C43.5858 22.7794 52.8549 21.9102 52.8549 21.9102C52.8549 21.9102 42.9714 29.3044 36.3054 30.6848C29.6394 32.0652 18.7243 31.3638 18.7243 31.3638V31.3675Z" fill="#9BA8CB"></path><path d="M29.442 53.7816L44.8073 28.6105L54.6647 25.417C54.6647 25.417 57.2753 30.3527 58.143 33.162C59.0144 35.9712 59.6512 40.3212 59.6512 40.3212L62.5597 43.0857C63.7737 44.6414 63.4348 46.8985 61.8148 48.0214L60.5673 48.8907C60.5673 48.8907 60.8131 65.5856 47.2987 62.948L38.942 77.8485L22.2919 66.2684L29.442 53.7816Z" fill="#A94A48"></path><path d="M18.7243 31.3675C17.3874 33.7812 16.8288 36.624 17.1528 39.3661C17.1789 39.5825 17.2571 39.8511 17.473 39.8847C17.5848 39.8996 17.6928 39.8436 17.7859 39.7802C18.3035 39.4258 18.6536 38.8364 18.7094 38.2096C18.3072 40.6868 18.7727 43.2423 19.6888 45.5778C20.6049 47.9132 21.9456 50.0509 23.3533 52.1289C23.9975 53.0765 24.6604 54.0278 25.07 55.0986C25.4797 56.1693 25.6175 57.3929 25.1855 58.4562C25.7366 58.4935 26.2989 58.2249 26.6118 57.7697C26.2282 58.2734 25.8781 59.0718 26.3809 59.4523C26.716 59.7023 27.1853 59.553 27.5726 59.3926C28.6004 58.9636 29.6468 58.5233 30.5145 57.8257C31.6541 56.9117 32.4212 55.6134 33.0766 54.3039C34.5849 51.3007 35.6537 48.0811 36.2458 44.7757C37.7279 44.6003 39.3777 44.4847 40.8598 44.3093C40.8375 42.3843 40.8114 40.407 40.5917 38.4969C55.2122 36.0346 54.1099 27.7487 54.4599 26.5436C55.2308 27.2599 55.9868 28.1553 56.5565 29.0432C56.5938 29.0992 56.5751 29.0619 56.6124 29.1216C57.4652 27.827 57.2902 26.0363 56.4709 24.7193C55.6516 23.4024 54.2886 22.5107 52.8586 21.9138C52.8586 21.9138 47.1832 26.1258 36.1005 28.6701C25.0179 31.2108 18.728 31.3712 18.728 31.3712L18.7243 31.3675Z" fill="#C5C6DB"></path><path d="M36.7038 43.9585C34.9312 56.0983 28.6786 67.5255 19.4207 75.5577C17.2124 77.4716 14.8514 79.1951 12.4903 80.915C10.241 82.5528 7.99546 84.1906 5.74615 85.8284C2.43923 83.0117 0.715018 78.9415 0.487853 74.5989C0.264412 70.2563 1.71678 65.8877 4.29379 62.3883C2.97549 63.7947 1.43375 65.6526 0.428269 67.2942C-0.70383 62.9889 1.16935 58.4374 3.76871 54.8298C6.36806 51.2222 9.73084 48.2115 12.2855 44.5704C14.8551 40.9068 16.5383 36.7097 18.1992 32.5537C20.6422 33.0909 23.0851 33.6282 25.5244 34.1654C28.2243 34.7586 30.9912 35.3816 33.3001 36.9C35.609 38.4184 37.106 41.2164 36.7038 43.9585Z" fill="#C5C6DB"></path><path d="M28.8387 42.582C28.9691 44.8017 30.0937 46.9432 31.844 48.3086C32.3914 48.7377 33.0134 49.0958 33.7023 49.204C35.2515 49.4465 36.7634 48.2825 37.3593 46.8313C37.9551 45.38 37.8136 43.731 37.4673 42.2014C37.0167 40.2242 36.0112 38.1051 34.0859 37.4821C30.98 36.4785 28.6786 39.8324 28.8425 42.582H28.8387Z" fill="#A94A48"></path><g style="mix-blend-mode:multiply"><path d="M35.6872 47.4506C35.0243 47.1857 34.4359 46.7343 34.0151 46.1561C33.9295 46.0404 33.8475 45.9136 33.8364 45.7681C33.814 45.4957 34.0449 45.2719 34.2535 45.0965C34.678 44.7384 35.1025 44.3802 35.5233 44.0221C35.609 43.9512 35.6947 43.8729 35.7356 43.7721C35.7766 43.6565 35.7542 43.5296 35.7282 43.4103C35.4079 41.8881 35.0132 40.2466 33.8066 39.2654C33.4826 39.0005 33.0953 38.7916 32.6782 38.7506C32.06 38.6872 31.4493 39.0005 31.0136 39.4445C30.5779 39.8885 30.2874 40.4518 30.0155 41.0114C30.0155 41.0114 29.4271 44.1601 31.4716 46.2568C33.5161 48.3535 35.6872 47.4469 35.6872 47.4469V47.4506Z" fill="#A94A48"></path></g><path d="M30.0155 41.0151C30.2278 40.407 30.4848 39.7989 30.9391 39.2841C31.17 39.0304 31.4493 38.8177 31.7733 38.6685C32.0935 38.5193 32.4734 38.4521 32.8458 38.5044C33.2182 38.5566 33.5571 38.7133 33.8475 38.9147C34.1343 39.1199 34.395 39.355 34.6147 39.6236C35.0578 40.1608 35.352 40.7876 35.5718 41.4181C35.784 42.0523 35.9218 42.694 36.0484 43.3282C36.0633 43.4065 36.0857 43.5035 36.0857 43.6341C36.0894 43.7572 36.0373 43.9363 35.9553 44.0445C35.7803 44.2571 35.6649 44.3056 35.5382 44.4213C35.2887 44.6227 35.0355 44.8205 34.7823 45.0182C34.5365 45.2197 34.2423 45.4099 34.1157 45.589C34.0524 45.6823 34.0337 45.7531 34.0673 45.8613C34.1008 45.9695 34.1976 46.1038 34.287 46.227C34.6408 46.7306 35.1286 47.1484 35.6946 47.4581C35.069 47.2902 34.4881 46.9321 34.0226 46.4433C33.9108 46.3165 33.7954 46.2046 33.7023 46.0143C33.598 45.8278 33.6167 45.5405 33.7246 45.3614C33.8215 45.1749 33.9593 45.0443 34.0822 44.9287L34.4397 44.6004C34.6743 44.3802 34.9126 44.1639 35.1547 43.9549C35.2664 43.8542 35.4265 43.7236 35.4451 43.6789C35.4563 43.6565 35.4451 43.6751 35.4489 43.6341C35.4489 43.6005 35.434 43.5408 35.4153 43.4625C35.2738 42.8395 35.1323 42.2239 34.9275 41.6419C34.7376 41.0562 34.4769 40.5003 34.1157 40.034C33.7619 39.5676 33.2852 39.1647 32.7639 39.0379C32.2425 38.9147 31.6429 39.1386 31.1886 39.5303C30.7194 39.922 30.3768 40.4742 30.0304 41.0189L30.0155 41.0151Z" fill="#2C2D40"></path><g style="mix-blend-mode:multiply" opacity="0.19"><path d="M47.388 63.0003C44.2152 61.3476 41.411 58.9898 39.2362 56.147C40.737 59.7173 43.0198 63.0301 45.8165 65.7088" fill="#2C6E7B"></path></g><path d="M6.1893 85.6493C6.1893 85.6493 19.1116 65.6788 23.4203 64.1492C27.729 62.6196 36.6107 69.3647 42.4463 74.1288C48.2781 78.893 55.1004 86.9961 55.1004 86.9961L6.1893 85.6493Z" fill="#BFCDF2"></path><path d="M57.6365 39.8214C57.6365 40.7018 57.1822 41.4181 56.6199 41.4181C56.0575 41.4181 55.6032 40.7055 55.6032 39.8214C55.6032 38.9372 56.0575 38.2246 56.6199 38.2246C57.1822 38.2246 57.6365 38.9372 57.6365 39.8214Z" fill="#2C2D40"></path><path d="M49.2016 38.0231C52.5421 37.3739 58.3739 33.9827 58.3739 33.9827C58.3739 33.9827 57.9382 32.4419 57.6551 31.804C55.2978 34.3782 52.3745 36.5755 49.2016 38.0231Z" fill="#C5C6DB"></path><path d="M60.0943 53.5391C58.3068 54.3189 56.2959 54.5725 54.3705 54.2554C56.6273 53.5354 58.5601 52.461 60.4593 51.0396C61.0105 51.8006 60.9546 53.1623 60.0943 53.5391Z" fill="#CE737E"></path><path d="M54.5642 54.0912C56.0575 54.6918 57.5546 55.2962 59.1075 55.7215C59.3086 55.7775 59.5283 55.8297 59.722 55.7476C59.9789 55.6432 60.0981 55.341 60.1428 55.0649C60.2582 54.3561 60.0646 53.5987 59.6177 53.0354" fill="#CE737E"></path><g style="mix-blend-mode:overlay"><path d="M52.2665 23.9397C52.1436 24.9209 51.8382 25.8759 51.4174 26.7788C50.9854 27.6741 50.4306 28.5098 49.7975 29.2784C48.5239 30.8154 46.93 32.054 45.2244 33.065C43.5002 34.0499 41.6642 34.8334 39.7538 35.3632C38.8005 35.6243 37.8285 35.8295 36.8528 35.975C35.8734 36.1056 34.8903 36.1914 33.9034 36.1914C34.8828 36.1018 35.8585 35.9787 36.823 35.7847C37.7876 35.6019 38.7372 35.3669 39.6719 35.0759C41.5414 34.4939 43.3475 33.7216 45.0308 32.7293C46.7252 31.763 48.2818 30.5468 49.574 29.0881C50.8626 27.6331 51.8606 25.8834 52.2665 23.9472V23.9397Z" fill="#BFCDF2"></path><path d="M39.8097 30.0022C39.4857 30.2074 39.158 30.4126 38.8303 30.614L37.8211 31.1736L36.7784 31.6773L35.7133 32.1362C34.2795 32.7144 32.7862 33.1323 31.2705 33.4457C29.7511 33.7255 28.2094 33.8971 26.6639 33.9008L25.5058 33.8784L24.3513 33.8038L23.2043 33.662C22.8245 33.5986 22.4446 33.5352 22.0685 33.4643C22.4521 33.4904 22.8357 33.524 23.2155 33.5576L24.3625 33.6098L25.5095 33.6285L26.6565 33.5986C28.1796 33.5315 29.7027 33.3673 31.1961 33.0577C32.6968 32.7816 34.1678 32.36 35.6053 31.8526L36.6778 31.4497L37.7354 31.002L38.7781 30.5208C39.117 30.3454 39.4596 30.1701 39.806 30.0022H39.8097Z" fill="#BFCDF2"></path><path d="M29.3043 50.1182C29.0436 50.6479 28.7568 51.1628 28.4775 51.6813C28.1833 52.1924 27.8817 52.6998 27.5763 53.2035C26.9619 54.2108 26.299 55.1845 25.61 56.1433C24.9136 57.0946 24.1949 58.031 23.4315 58.9264C23.0479 59.3741 22.6606 59.818 22.2659 60.2545C21.86 60.6836 21.4615 61.1163 21.037 61.5267L22.1169 60.1314C22.4781 59.6688 22.8394 59.2062 23.1932 58.7361C23.9007 57.7997 24.6083 56.8633 25.2898 55.912C25.9824 54.9644 26.649 54.0018 27.3194 53.0393C27.6545 52.5581 27.9822 52.0693 28.3099 51.5806L29.3005 50.1182H29.3043Z" fill="#BFCDF2"></path><path d="M24.8987 40.2727C24.6083 41.9217 24.0981 43.5334 23.4687 45.0891C22.8282 46.641 22.0536 48.1371 21.2045 49.5846C19.4989 52.4833 17.4768 55.1657 15.5068 57.8668C13.5107 60.5492 11.578 63.28 9.98408 66.2124C8.39393 69.1335 7.17618 72.3009 6.78143 75.6399C6.89688 73.9686 7.25066 72.3121 7.7534 70.7116C8.27104 69.1112 8.94508 67.5666 9.71595 66.0744C11.2689 63.0898 13.2165 60.3402 15.1902 57.6355C17.19 54.9531 19.1973 52.2744 20.9476 49.4316C22.6904 46.5925 24.1502 43.5445 24.8987 40.2727Z" fill="#BFCDF2"></path><path d="M21.3163 36.9226C20.7167 37.9411 20.0873 38.9409 19.458 39.9408C18.8137 40.9331 18.1583 41.9143 17.4954 42.8918C16.1622 44.8429 14.7545 46.7419 13.3171 48.6184C11.8573 50.4763 10.3639 52.3118 8.80731 54.0876C8.02526 54.9718 7.23577 55.8523 6.43511 56.7215C5.62328 57.5796 4.81144 58.4377 3.97354 59.2696L5.13916 57.9377L6.2936 56.5947C7.06447 55.6993 7.82789 54.8002 8.58014 53.8936C10.0884 52.0805 11.578 50.2525 13.008 48.3796C14.4678 46.5255 15.8643 44.6303 17.2496 42.7201C17.9423 41.7651 18.6238 40.8026 19.2978 39.8363L20.3108 38.385L21.3125 36.9263L21.3163 36.9226Z" fill="#BFCDF2"></path></g><path d="M41.0684 8.83773C41.3477 10.1621 41.1019 11.5985 40.3273 13.143L38.7595 16.2954C38.5323 16.758 38.4392 17.202 38.4728 17.6236C38.5025 17.9258 38.3089 18.2056 38.0147 18.2653L34.2013 19.0748C33.8066 19.1569 33.423 18.9069 33.3373 18.5115C33.0618 17.2095 33.2442 15.9709 33.881 14.7994L35.5122 11.7962C35.9293 11.0165 36.0857 10.3785 35.9814 9.88233C35.7133 8.62135 34.961 8.12143 33.7246 8.38258C32.6931 8.60269 32.1866 9.18095 32.2052 10.1211C32.2127 10.4755 31.9818 10.7926 31.6355 10.8672L27.945 11.6507C27.5242 11.7402 27.1182 11.4455 27.0698 11.0165C26.8762 9.31899 27.2709 7.81178 28.2466 6.49857C29.2893 5.11074 30.7938 4.20791 32.7564 3.7938C34.6966 3.38342 36.4245 3.58861 37.9365 4.4131C39.5937 5.31593 40.6401 6.78956 41.0721 8.83773H41.0684ZM39.9251 22.5668C40.0964 23.3726 39.9512 24.1262 39.4969 24.8276C39.0425 25.529 38.4094 25.9655 37.6051 26.1371C36.8007 26.3087 36.0484 26.1632 35.3483 25.708C34.6482 25.2529 34.2125 24.6187 34.0412 23.8128C33.8699 23.007 34.0151 22.2534 34.4694 21.552C34.9238 20.8506 35.5569 20.4141 36.3612 20.2425C37.1656 20.0709 37.9179 20.2164 38.618 20.6716C39.3181 21.1267 39.7538 21.7609 39.9251 22.5668Z" fill="#74B8FC"></path><path d="M50.9817 14.0121C50.6875 14.7545 50.0991 15.3776 49.2165 15.885L47.4215 16.9184C47.1609 17.0713 46.9672 17.2579 46.848 17.478C46.7624 17.6347 46.5799 17.7093 46.4123 17.6421L44.2785 16.7915C44.0588 16.702 43.9508 16.452 44.0364 16.2319C44.3269 15.5007 44.8185 14.9523 45.5111 14.5867L47.2912 13.6465C47.7493 13.4003 48.036 13.1391 48.144 12.8593C48.4233 12.1542 48.2185 11.6618 47.5258 11.3857C46.9486 11.1544 46.5092 11.2738 46.2112 11.7439C46.0995 11.9192 45.8835 12.0013 45.6899 11.9229L43.6231 11.1022C43.3884 11.0089 43.2842 10.7291 43.3996 10.5053C43.8577 9.60989 44.5429 8.99805 45.4478 8.67348C46.4123 8.33398 47.4439 8.38248 48.5425 8.81898C49.6299 9.25174 50.4082 9.91581 50.8812 10.8186C51.3988 11.8035 51.4323 12.8705 50.978 14.0159L50.9817 14.0121ZM45.9468 20.373C45.7681 20.8244 45.4515 21.149 45.0009 21.343C44.5466 21.537 44.096 21.5482 43.6454 21.3654C43.1948 21.1826 42.8708 20.8692 42.6772 20.4178C42.4835 19.9664 42.4723 19.5112 42.6548 19.0598C42.8373 18.6084 43.1501 18.2838 43.6007 18.0898C44.0513 17.8958 44.5056 17.8883 44.9563 18.0674C45.4069 18.2465 45.7308 18.5636 45.9245 19.015C46.1181 19.4664 46.1256 19.9216 45.9468 20.373Z" fill="#FA7500"></path><path d="M24.9099 14.9151C25.4834 15.471 25.8335 16.2507 25.9675 17.2617L26.2394 19.3211C26.2803 19.6233 26.3809 19.8695 26.5373 20.0635C26.649 20.2015 26.649 20.3993 26.5261 20.5298L24.9285 22.1826C24.7647 22.3542 24.4928 22.3579 24.3215 22.1937C23.7592 21.6491 23.4389 20.985 23.3644 20.2015L23.1708 18.1944C23.1187 17.6758 22.9846 17.3102 22.7686 17.105C22.2249 16.5753 21.6924 16.5827 21.171 17.12C20.739 17.5677 20.6832 18.0191 20.9997 18.4705C21.1189 18.6421 21.1114 18.8697 20.9662 19.0226L19.4207 20.6231C19.2457 20.8059 18.9478 20.7947 18.7839 20.6007C18.1322 19.8359 17.8268 18.9704 17.8715 18.0041C17.9237 16.9819 18.3631 16.0455 19.1824 15.1912C19.9942 14.348 20.9066 13.878 21.9158 13.7847C23.0218 13.6765 24.0199 14.0533 24.9025 14.9114L24.9099 14.9151ZM28.8723 21.9997C29.2223 22.3392 29.4011 22.7534 29.4085 23.2458C29.416 23.7383 29.2521 24.1598 28.9169 24.5105C28.5781 24.8612 28.1647 25.0403 27.6731 25.0477C27.1816 25.0552 26.7607 24.8911 26.4107 24.5553C26.0606 24.2158 25.8819 23.8017 25.8744 23.3092C25.867 22.8168 26.0308 22.3952 26.366 22.0445C26.7049 21.6938 27.1182 21.5148 27.6098 21.5073C28.1014 21.4998 28.5222 21.664 28.8723 21.9997Z" fill="#FA7500"></path><path d="M21.7259 25.8982C22.3964 25.8982 22.9399 25.3537 22.9399 24.682C22.9399 24.0103 22.3964 23.4658 21.7259 23.4658C21.0554 23.4658 20.5118 24.0103 20.5118 24.682C20.5118 25.3537 21.0554 25.8982 21.7259 25.8982Z" stroke="#BFCDF2" stroke-width="0.53" stroke-miterlimit="10"></path><path d="M17.3725 27.8308C17.3725 28.1665 17.1007 28.4389 16.7655 28.4389C16.4303 28.4389 16.1585 28.1665 16.1585 27.8308C16.1585 27.495 16.4303 27.2227 16.7655 27.2227C17.1007 27.2227 17.3725 27.495 17.3725 27.8308Z" fill="#BFCDF2"></path><path d="M57.2343 17.0303C57.9048 17.0303 58.4483 16.4858 58.4483 15.8141C58.4483 15.1424 57.9048 14.5979 57.2343 14.5979C56.5638 14.5979 56.0203 15.1424 56.0203 15.8141C56.0203 16.4858 56.5638 17.0303 57.2343 17.0303Z" stroke="#BFCDF2" stroke-width="0.53" stroke-miterlimit="10"></path><path d="M52.881 18.9592C52.881 19.2949 52.6091 19.5673 52.2739 19.5673C51.9388 19.5673 51.6669 19.2949 51.6669 18.9592C51.6669 18.6234 51.9388 18.3511 52.2739 18.3511C52.6091 18.3511 52.881 18.6234 52.881 18.9592Z" fill="#BFCDF2"></path><path d="M22.601 6.70001C23.2715 6.70001 23.815 6.15549 23.815 5.48379C23.815 4.8121 23.2715 4.26758 22.601 4.26758C21.9305 4.26758 21.387 4.8121 21.387 5.48379C21.387 6.15549 21.9305 6.70001 22.601 6.70001Z" stroke="#BFCDF2" stroke-width="0.53" stroke-miterlimit="10"></path><path d="M23.4017 10.1882C23.4017 10.5239 23.1298 10.7963 22.7947 10.7963C22.4595 10.7963 22.1877 10.5239 22.1877 10.1882C22.1877 9.85242 22.4595 9.58008 22.7947 9.58008C23.1298 9.58008 23.4017 9.85242 23.4017 10.1882Z" fill="#BFCDF2"></path><path d="M52.5979 13.1915C52.9033 12.7998 53.2459 12.4565 53.6034 12.132C53.9572 11.8036 54.3333 11.5052 54.7131 11.2105C55.1004 10.9269 55.4915 10.6471 55.9048 10.4009C56.3145 10.1472 56.739 9.91591 57.2008 9.72937C56.8954 10.1211 56.5528 10.4643 56.1953 10.7889C55.8415 11.1172 55.4654 11.4157 55.0855 11.7104C54.6982 11.9939 54.3072 12.2737 53.8939 12.5199C53.4842 12.7736 53.0597 13.0049 52.5979 13.1915Z" fill="#009EDD"></path><path d="M51.4323 9.99788C51.5291 9.71062 51.6706 9.46812 51.8271 9.24055C51.9797 9.00924 52.1585 8.80032 52.3447 8.60259C52.5346 8.40487 52.7394 8.22206 52.9629 8.06164C53.1863 7.89749 53.4247 7.74826 53.7077 7.6438C53.6109 7.93106 53.4693 8.17356 53.3129 8.40113C53.1603 8.63244 52.9815 8.84136 52.7916 9.03909C52.6016 9.23308 52.3968 9.41589 52.1734 9.58004C51.95 9.74419 51.7116 9.89342 51.4286 9.99788H51.4323Z" fill="#009EDD"></path><path d="M43.1985 8.03932C43.2842 7.56551 43.422 7.11783 43.5821 6.6776C43.7385 6.23738 43.921 5.81208 44.1221 5.39051C44.3232 4.97266 44.5392 4.56229 44.7849 4.1631C45.027 3.76391 45.2877 3.37592 45.608 3.01404C45.526 3.48784 45.3845 3.93553 45.2244 4.37575C45.068 4.81598 44.8855 5.24128 44.6844 5.66285C44.4833 6.08069 44.2636 6.49107 44.0215 6.89025C43.7795 7.28944 43.5188 7.67744 43.2022 8.04305L43.1985 8.03932Z" fill="#009EDD"></path><path d="M42.1818 5.57701C42.1185 5.34198 42.1148 5.1256 42.1297 4.91295C42.1409 4.7003 42.1856 4.49884 42.2452 4.30111C42.3047 4.10338 42.3829 3.91311 42.4909 3.73031C42.5952 3.5475 42.7181 3.36843 42.9043 3.20801C42.9676 3.44304 42.9751 3.65942 42.9564 3.87208C42.9453 4.08473 42.9006 4.28619 42.841 4.48391C42.7814 4.68164 42.7032 4.87191 42.5952 5.05471C42.4909 5.23752 42.368 5.41659 42.1818 5.57701Z" fill="#009EDD"></path><path d="M15.9686 9.50171C16.3484 9.58752 16.691 9.74048 17.0225 9.91582C17.3539 10.0912 17.663 10.3038 17.9535 10.5351C18.2439 10.7702 18.5158 11.0238 18.7578 11.3111C19.0036 11.5946 19.2234 11.9006 19.3909 12.2512C19.0409 12.0834 18.7318 11.8819 18.4339 11.673C18.1322 11.4678 17.8455 11.2477 17.5662 11.0238C17.2869 10.7963 17.0113 10.565 16.7469 10.315C16.4788 10.0688 16.2181 9.80763 15.976 9.50544L15.9686 9.50171Z" fill="#009EDD"></path><path d="M15.1604 12.3558C15.4546 12.352 15.7228 12.4043 15.9797 12.4752C16.2404 12.5423 16.4862 12.6393 16.7282 12.7512C16.9666 12.8632 17.1975 12.9937 17.4172 13.1504C17.6369 13.3034 17.8492 13.4787 18.0316 13.71C17.7374 13.7138 17.4693 13.6653 17.2086 13.5944C16.948 13.5272 16.7022 13.4302 16.4601 13.3183C16.2218 13.2027 15.9909 13.0758 15.7712 12.9191C15.5515 12.7662 15.3392 12.5908 15.1567 12.3595L15.1604 12.3558Z" fill="#009EDD"></path><path d="M10.6283 23.7233C11.1869 23.6039 11.7455 23.5442 12.3041 23.5069C12.8627 23.4659 13.4176 23.4622 13.9762 23.4622C14.5348 23.4771 15.0897 23.4995 15.6446 23.5554C16.1994 23.6114 16.758 23.686 17.3129 23.824C16.7543 23.9472 16.1957 24.0031 15.6371 24.0404C15.0785 24.0815 14.5236 24.0852 13.965 24.0815C13.4064 24.0665 12.8516 24.0442 12.2967 23.9845C11.7418 23.9285 11.1832 23.8539 10.6283 23.7158V23.7233Z" fill="#009EDD"></path><path d="M14.4343 21.537C14.7508 21.44 15.0636 21.4101 15.3727 21.4064C15.6855 21.3989 15.9909 21.4288 16.2963 21.481C16.5979 21.5333 16.8996 21.6116 17.19 21.7235C17.4805 21.8317 17.7673 21.966 18.0317 22.1637C17.7039 22.216 17.3949 22.216 17.0895 22.2011C16.7841 22.1861 16.4862 22.1488 16.1883 22.1003C15.8904 22.0481 15.5962 21.9847 15.3057 21.8914C15.0115 21.8056 14.721 21.7011 14.4305 21.5444L14.4343 21.537Z" fill="#009EDD"></path></g></g><defs><clipPath id="clip0_3325_3358"><rect width="72" height="84" fill="white"></rect></clipPath></defs></svg>