<svg xmlns="http://www.w3.org/2000/svg" width="73" height="84" viewBox="0 0 73 84" fill="none"><g clip-path="url(#clip0_3325_3308)"><mask id="mask0_3325_3308" style="mask-type:luminance" maskUnits="userSpaceOnUse" x="0" y="0" width="73" height="84"><path d="M72.6 47.6416C72.6 67.722 56.4825 84 36.6 84C16.7175 84 0.599976 67.722 0.599976 47.6416C0.599976 27.5612 16.7175 0 36.6 0C56.4825 0 72.6 27.5612 72.6 47.6416Z" fill="white"></path></mask><g mask="url(#mask0_3325_3308)"><path d="M36.6 84.0001C56.4822 84.0001 72.6 67.7219 72.6 47.6417C72.6 27.5615 56.4822 11.2833 36.6 11.2833C16.7177 11.2833 0.599976 27.5615 0.599976 47.6417C0.599976 67.7219 16.7177 84.0001 36.6 84.0001Z" fill="#74B8FC"></path><path d="M54.5944 33.9777C54.5944 33.9777 48.2785 30.4272 39.0057 27.8735C29.7329 25.3197 20.4639 24.4434 20.4639 24.4434C20.4639 24.4434 30.3474 31.8978 37.0134 33.2894C43.6793 34.681 54.5944 33.9739 54.5944 33.9739V33.9777Z" fill="#0F0F18"></path><path d="M43.8767 56.5704L28.5114 31.1943L18.654 27.9749C18.654 27.9749 16.0435 32.9508 15.1758 35.7829C14.3043 38.615 13.6675 43.0004 13.6675 43.0004C13.6675 43.0004 12.1854 43.6962 10.7591 45.7873C9.33279 47.8823 9.08328 50.515 9.08328 50.515L12.7514 51.6396C12.7514 51.6396 12.5056 68.4704 26.0201 65.8113L34.3768 80.8331L51.0268 69.1587L43.8767 56.5704Z" fill="#E47573"></path><path d="M54.5944 33.9776C55.9313 36.411 56.4899 39.277 56.1659 42.0414C56.1399 42.2595 56.0617 42.5303 55.8457 42.5642C55.7339 42.5792 55.6259 42.5228 55.5328 42.4588C55.0152 42.1015 54.6652 41.5073 54.6093 40.8754C55.0115 43.3728 54.546 45.9491 53.6299 48.3036C52.7175 50.658 51.3731 52.8131 49.9655 54.908C49.3212 55.8633 48.6583 56.8224 48.2487 57.9018C47.839 58.9813 47.7013 60.2149 48.1332 61.2868C47.5821 61.3244 47.0198 61.0536 46.7069 60.5948C47.0905 61.1025 47.4406 61.9074 46.9378 62.291C46.6027 62.543 46.1334 62.3926 45.7462 62.2309C44.7183 61.7983 43.6719 61.3545 42.8042 60.6512C41.6646 59.7297 40.8975 58.4209 40.2421 57.1007C38.7338 54.0731 37.665 50.8273 37.0729 47.4949C35.5908 47.3182 33.941 47.2016 32.4589 47.0248C32.4812 45.0841 32.5073 43.0907 32.727 41.165C18.1065 38.6827 19.2089 30.3294 18.8588 29.1145C18.0879 29.8367 17.332 30.7393 16.7622 31.6344C16.7249 31.6909 16.7436 31.6533 16.7063 31.7134C15.8535 30.4083 16.0286 28.603 16.8478 27.2754C17.6671 25.9477 19.0301 25.0488 20.4601 24.447C20.4601 24.447 26.1355 28.6933 37.2182 31.2583C48.3008 33.8196 54.5907 33.9814 54.5907 33.9814L54.5944 33.9776Z" fill="#2C2D40"></path><g style="mix-blend-mode:multiply" opacity="0.19"><path d="M25.9307 65.8679C29.1036 64.2017 31.9078 61.8247 34.0826 58.9587C32.5818 62.5581 30.299 65.8979 27.5023 68.5984" fill="#2C6E7B"></path></g><path d="M67.1332 88.7013C67.1332 88.7013 54.2108 68.5683 49.9022 67.0262C45.5935 65.4842 36.7117 72.2842 30.8762 77.0871C25.0444 81.89 18.222 90.0591 18.222 90.0591L67.1332 88.7013Z" fill="#BFCDF2"></path><path d="M15.6822 42.4965C15.6822 43.3841 16.1365 44.1062 16.6989 44.1062C17.2612 44.1062 17.7155 43.3878 17.7155 42.4965C17.7155 41.6051 17.2612 40.8867 16.6989 40.8867C16.1365 40.8867 15.6822 41.6051 15.6822 42.4965Z" fill="#2C2D40"></path><path d="M24.1171 40.6874C20.7767 40.033 14.9449 36.6142 14.9449 36.6142C14.9449 36.6142 15.3806 35.0609 15.6636 34.4177C18.0209 37.0129 20.9443 39.2281 24.1171 40.6874Z" fill="#2C2D40"></path><path d="M54.8476 34.2183C55.3727 36.0386 55.9834 37.9831 57.4693 39.1377C58.3966 39.8599 59.5622 40.1833 60.6161 40.7061C62.3589 41.5712 63.8374 43.0455 64.5375 44.8734C65.2376 46.7013 65.1035 48.8827 64.0236 50.515C65.7366 49.9132 67.6992 51.1619 68.3509 52.8732C69.0026 54.5807 68.5892 56.5403 67.7587 58.1688C69.6208 57.5445 71.7919 58.7217 72.6037 60.527C73.4155 62.3323 73.0133 64.5401 71.8961 66.1724C70.7789 67.8047 69.0435 68.918 67.215 69.6364C67.7811 69.8545 68.079 70.5202 68.0455 71.1295C68.012 71.7388 67.7178 72.303 67.3901 72.8182C65.5988 75.6579 62.6829 77.749 59.4356 78.5163C58.5493 78.7269 57.339 78.6554 57.0895 77.7753C57.406 78.2079 57.2682 78.8472 56.9219 79.2534C56.5755 79.6596 56.0691 79.8815 55.5775 80.0846C54.006 80.7353 52.3823 81.3258 50.6916 81.465C49.0009 81.6041 47.2097 81.2468 45.8839 80.1712C44.5582 79.0955 43.8134 77.2262 44.3347 75.5939C42.5882 76.6094 40.3016 76.5981 38.5662 75.5638C36.8308 74.5333 35.7099 72.5173 35.7434 70.4826C35.7621 69.1775 36.4584 67.6956 37.7358 67.5076C36.1307 67.3684 35.0173 65.7173 34.8013 64.1076C34.4512 61.4786 36.0563 58.7067 38.4992 57.7288C37.1995 56.9502 36.6521 55.1148 37.3075 53.7383C37.5272 53.2757 37.8624 52.8732 38.1938 52.4821C43.3739 46.3665 48.1183 38.6638 54.5944 33.9775" fill="#2C2D40"></path><path d="M44.4837 45.2834C44.3534 47.5212 43.2288 49.6801 41.4785 51.0567C40.931 51.4892 40.3091 51.8502 39.6202 51.9593C38.071 52.2038 36.5591 51.0303 35.9632 49.5673C35.3674 48.1042 35.5089 46.4418 35.8552 44.8998C36.3058 42.9064 37.3113 40.7701 39.2366 40.142C42.3424 39.1303 44.6439 42.5115 44.48 45.2834H44.4837Z" fill="#E47573"></path><g style="mix-blend-mode:multiply"><path d="M37.6315 50.1917C38.2944 49.9246 38.8828 49.4695 39.3036 48.8866C39.3893 48.77 39.4712 48.6421 39.4824 48.4954C39.5047 48.2209 39.2738 47.9952 39.0653 47.8184C38.6407 47.4574 38.2162 47.0963 37.7954 46.7352C37.7097 46.6638 37.6241 46.5848 37.5831 46.4832C37.5422 46.3666 37.5645 46.2388 37.5906 46.1184C37.9108 44.5839 38.3056 42.929 39.5122 41.9399C39.8362 41.6728 40.2235 41.4622 40.6405 41.4208C41.2587 41.3569 41.8695 41.6728 42.3052 42.1204C42.7409 42.568 43.0314 43.1359 43.3032 43.7C43.3032 43.7 43.8916 46.8744 41.8471 48.9881C39.8026 51.1018 37.6315 50.1879 37.6315 50.1879V50.1917Z" fill="#E47573"></path></g><path d="M43.3033 43.7038C42.9569 43.1584 42.6143 42.598 42.1451 42.2031C41.6908 41.8082 41.0912 41.5825 40.5698 41.7067C40.0485 41.8345 39.5681 42.2407 39.218 42.7109C38.8568 43.181 38.5961 43.7414 38.4062 44.3319C38.2014 44.9186 38.0599 45.5392 37.9183 46.1673C37.8997 46.2463 37.8848 46.3065 37.8848 46.3403C37.8848 46.3779 37.8811 46.3629 37.8885 46.3854C37.9072 46.4268 38.0673 46.5584 38.179 46.6638C38.4211 46.8781 38.6557 47.0963 38.894 47.3144L39.2515 47.6454C39.3744 47.762 39.5085 47.8899 39.609 48.0817C39.717 48.2622 39.7319 48.5518 39.6314 48.7399C39.5346 48.9317 39.4228 49.0445 39.3111 49.1724C38.8493 49.6613 38.2647 50.0262 37.639 50.1954C38.2051 49.8832 38.6929 49.462 39.0467 48.9543C39.1324 48.8301 39.2292 48.6947 39.2664 48.5857C39.2999 48.4766 39.2813 48.4089 39.218 48.3111C39.0914 48.1268 38.7972 47.935 38.5514 47.7357C38.2982 47.5363 38.045 47.337 37.7954 47.1339C37.6688 47.0211 37.5571 46.9722 37.3784 46.754C37.2927 46.645 37.2406 46.4644 37.248 46.3403C37.248 46.2124 37.2704 46.1109 37.2853 46.0319C37.4119 45.3925 37.5497 44.7456 37.7619 44.1062C37.9816 43.4744 38.2758 42.8387 38.719 42.2971C38.9387 42.0263 39.1994 41.7894 39.4861 41.5825C39.7766 41.3794 40.1155 41.2215 40.4879 41.1688C40.8603 41.1162 41.2402 41.1839 41.5604 41.3343C41.8844 41.4847 42.1637 41.7029 42.3946 41.9549C42.8489 42.4702 43.1059 43.087 43.3182 43.7L43.3033 43.7038Z" fill="#2C2D40"></path><path d="M13.3249 55.0773C15.1609 55.6301 16.8888 56.4425 18.4492 57.4693C16.7175 56.7773 14.9151 56.3447 13.1127 56.183L13.3249 55.0735V55.0773Z" fill="#2C2D40"></path><path d="M16.5946 45.385C16.5946 45.385 14.606 49.0145 16.4419 49.0145C18.2778 49.0145 16.5946 45.385 16.5946 45.385Z" fill="white"></path><path d="M56.4192 32.7779C57.0897 32.7779 57.6332 32.229 57.6332 31.5518C57.6332 30.8746 57.0897 30.3257 56.4192 30.3257C55.7487 30.3257 55.2051 30.8746 55.2051 31.5518C55.2051 32.229 55.7487 32.7779 56.4192 32.7779Z" stroke="#BFCDF2" stroke-width="0.53" stroke-miterlimit="10"></path><path d="M60.7762 34.7224C60.7762 35.0609 61.0481 35.3355 61.3833 35.3355C61.7184 35.3355 61.9903 35.0609 61.9903 34.7224C61.9903 34.3839 61.7184 34.1094 61.3833 34.1094C61.0481 34.1094 60.7762 34.3839 60.7762 34.7224Z" fill="#BFCDF2"></path><path d="M28.221 7.16866C28.8915 7.16866 29.435 6.61971 29.435 5.94254C29.435 5.26538 28.8915 4.71643 28.221 4.71643C27.5505 4.71643 27.007 5.26538 27.007 5.94254C27.007 6.61971 27.5505 7.16866 28.221 7.16866Z" stroke="#BFCDF2" stroke-width="0.53" stroke-miterlimit="10"></path><path d="M23.4207 11.7685C23.4207 12.1069 23.6926 12.3815 24.0277 12.3815C24.3629 12.3815 24.6347 12.1069 24.6347 11.7685C24.6347 11.43 24.3629 11.1554 24.0277 11.1554C23.6926 11.1554 23.4207 11.43 23.4207 11.7685Z" fill="#BFCDF2"></path><path d="M49.5037 7.88322C49.5037 8.56021 50.0474 9.10933 50.7177 9.10933C51.388 9.10933 51.9317 8.56021 51.9317 7.88322C51.9317 7.20622 51.388 6.6571 50.7177 6.6571C50.0474 6.6571 49.5037 7.20622 49.5037 7.88322Z" stroke="#BFCDF2" stroke-width="0.53" stroke-miterlimit="10"></path><path d="M49.917 12.626C49.917 12.9645 50.1888 13.2391 50.524 13.2391C50.8592 13.2391 51.131 12.9645 51.131 12.626C51.131 12.2875 50.8592 12.0129 50.524 12.0129C50.1888 12.0129 49.917 12.2875 49.917 12.626Z" fill="#BFCDF2"></path><g style="mix-blend-mode:overlay"><path d="M23.134 30.0286C23.9086 31.2885 24.8433 32.4319 25.9233 33.4135C27.0032 34.3914 28.2098 35.2301 29.5244 35.8394C30.8278 36.4751 32.2355 36.8813 33.6729 37.0919C34.3917 37.201 35.1178 37.2536 35.8477 37.2498C36.5776 37.2574 37.3076 37.1972 38.0337 37.0994C37.3224 37.2799 36.5888 37.3777 35.8515 37.4341C35.1141 37.4755 34.373 37.4567 33.6357 37.3815C32.161 37.2235 30.7161 36.806 29.368 36.1817C28.031 35.531 26.7872 34.6735 25.7296 33.6279C24.672 32.5823 23.7782 31.3675 23.1377 30.0323L23.134 30.0286Z" fill="#BFCDF2"></path><path d="M29.8447 31.5405C31.554 32.5146 33.3229 33.3684 35.1514 34.0717C36.9799 34.7713 38.853 35.343 40.7672 35.7341C42.6739 36.1554 44.6178 36.3961 46.5692 36.4976L48.0327 36.5465L49.5 36.5315L50.9673 36.4675L52.4345 36.3434L50.9784 36.5653L49.5112 36.7158L48.0365 36.7835H46.558C44.588 36.7459 42.6217 36.4976 40.689 36.1027C38.7637 35.6777 36.8644 35.106 35.0434 34.3425C33.2223 33.579 31.4721 32.6538 29.8409 31.5443L29.8447 31.5405Z" fill="#BFCDF2"></path><path d="M50.997 40.2324C51.9206 40.2324 52.8478 40.3753 53.7416 40.6311C54.6354 40.8868 55.5068 41.278 56.2404 41.8873C56.6054 42.1882 56.9256 42.5568 57.1714 42.9743C57.4172 43.3917 57.5662 43.8769 57.5922 44.3658C57.622 44.8548 57.5401 45.3513 57.3353 45.8063C57.1342 46.2614 56.7878 46.6564 56.341 46.8971L56.2814 46.5736C57.0671 46.6601 57.838 46.9121 58.5195 47.3221C59.201 47.732 59.7968 48.3225 60.1581 49.0522C60.523 49.7856 60.6198 50.6356 60.4634 51.4292C60.3108 52.2228 59.8751 52.9862 59.1861 53.4413L59.1079 53.1442C59.8974 53.1931 60.6347 53.5767 61.1822 54.1221C61.7296 54.6712 62.1057 55.4084 62.169 56.1869C62.2361 56.9692 61.9717 57.7478 61.5248 58.3608C61.0779 58.9777 60.4262 59.4478 59.6926 59.6095C61.1338 59.1845 62.1206 57.6613 61.9605 56.2095C61.8823 55.4874 61.5136 54.8141 60.9922 54.3214C60.4709 53.825 59.7857 53.509 59.0856 53.4677L58.6089 53.4413L59.0074 53.1743C59.6106 52.7681 59.9942 52.0874 60.1283 51.3652C60.2661 50.6431 60.1692 49.8683 59.8378 49.2214C59.5026 48.567 58.9664 48.0254 58.337 47.638C57.7077 47.2468 56.9852 47.0061 56.2479 46.9159L55.6855 46.8482L56.1883 46.5924C56.9554 46.2013 57.3278 45.2572 57.2831 44.3847C57.272 43.4895 56.7655 42.6658 56.0877 42.0754C55.4062 41.4736 54.5646 41.0711 53.7006 40.774C52.8292 40.4769 51.9206 40.3039 50.997 40.2362V40.2324Z" fill="#BFCDF2"></path><path d="M49.4664 51.6736C50.3714 51.824 51.2726 52.0497 52.1254 52.4108C52.9782 52.7681 53.7826 53.3021 54.3821 54.0431C54.9854 54.7878 55.2833 55.7619 55.2535 56.7247C55.2312 57.2061 55.1232 57.6913 54.9035 58.1314C54.6838 58.5676 54.3449 58.955 53.9203 59.2108L53.8943 58.9024C55.0748 59.3387 56.0132 60.373 56.3335 61.6066C56.6463 62.844 56.3261 64.2055 55.5068 65.1683L55.4211 64.8938C57.2049 65.3526 58.5754 67.0113 58.7169 68.8392C58.8621 70.667 57.7486 72.4837 56.125 73.1757C57.7039 72.3821 58.661 70.5768 58.486 68.8617C58.2998 67.1467 56.9703 65.6347 55.3392 65.2248L55.0748 65.1571L55.2498 64.9464C55.9872 64.0663 56.2665 62.8101 55.9723 61.7006C55.6893 60.5911 54.8402 59.6283 53.7714 59.2258L53.4288 59.098L53.7416 58.9174C54.4938 58.4849 54.8998 57.5973 54.937 56.7134C54.9891 55.8296 54.7359 54.9081 54.1922 54.1973C53.6448 53.4789 52.8814 52.9448 52.0621 52.5462C51.2391 52.1475 50.3527 51.8917 49.459 51.6773L49.4664 51.6736Z" fill="#BFCDF2"></path><path d="M44.6923 56.6795C46.2266 57.1459 47.3996 58.6917 47.4294 60.3692C47.4518 61.2041 47.1799 62.0391 46.7033 62.7198C46.234 63.4044 45.56 63.9572 44.7705 64.2468L44.6923 63.8971C44.9828 63.8632 45.2844 63.9384 45.5302 64.0889C45.7797 64.2356 45.9734 64.4499 46.1186 64.6906C46.4053 65.1645 46.5171 65.7513 46.3718 66.3004C46.2303 66.8345 45.9026 67.2933 45.5227 67.6506C45.1392 68.0117 44.6997 68.3013 44.238 68.5307L44.2119 68.2561C44.7333 68.4404 45.0275 68.9708 45.0349 69.4747C45.0423 69.9862 44.804 70.4564 44.4912 70.8137C43.8507 71.5358 42.8452 71.8856 41.9328 71.6975C42.8526 71.7953 43.7948 71.4004 44.346 70.6896C44.6253 70.3435 44.8152 69.9073 44.7928 69.4785C44.7742 69.061 44.5024 68.6435 44.1262 68.5382L43.7874 68.4404L44.1039 68.2637C44.5359 68.0192 44.953 67.7484 45.2993 67.4099C45.6456 67.0714 45.9249 66.6652 46.0404 66.2064C46.1558 65.7663 46.0553 65.2698 45.8132 64.8825C45.5712 64.4951 45.169 64.2092 44.737 64.2544L43.1654 64.4236L44.6588 63.9008C45.3738 63.6526 45.9994 63.1524 46.4426 62.5243C46.882 61.8962 47.1539 61.1402 47.1725 60.3654C47.1911 58.8158 46.1819 57.2738 44.6997 56.6758L44.6923 56.6795Z" fill="#BFCDF2"></path></g><path d="M41.8769 18.5272L39.0355 24.0597L37.7507 22.183L41.6498 22.6456L43.1431 22.8223L42.4877 23.9431L38.5104 30.7582L40.8156 23.1984L41.6498 24.496L37.7507 24.9586L35.9483 25.173L36.4622 23.0781L37.9555 17.0303L41.8769 18.5272Z" fill="#1B283E"></path><path d="M60.5007 23.5518L59.0856 26.3049L58.445 25.3722L60.389 25.6016L61.13 25.6919L60.8061 26.2485L58.8249 29.641L59.9719 25.8762L60.389 26.5231L58.445 26.7525L57.5513 26.8578L57.8082 25.816L58.5493 22.8071L60.5007 23.5518Z" fill="#1B283E"></path><path d="M22.8435 16.4059L21.2533 19.3884L20.6128 18.4556L22.553 18.6851L23.2978 18.7753L22.9701 19.332L20.9927 22.7245L22.1359 18.9596L22.553 19.6065L20.6128 19.836L19.7153 19.9413L19.9723 18.8995L20.6203 16.2629L22.8435 16.4059Z" fill="#1B283E"></path><path d="M53.6783 23.5518L52.2632 26.3049L51.6226 25.3722L53.5666 25.6016L54.3077 25.6919L53.9837 26.2485L52.0025 29.641L53.1495 25.8762L53.5666 26.5231L51.6226 26.7525L50.7252 26.8578L50.9821 25.816L51.7269 22.8071L53.6783 23.5518Z" fill="#1B283E"></path><path d="M53.4959 19.1214H24.5938C24.3778 17.9216 24.5603 16.8309 25.3721 15.9282C26.184 15.0255 27.4203 14.5291 28.6269 14.6269C28.3178 12.8178 28.9137 11.0802 30.1389 9.72242C31.3603 8.36091 33.4756 8.16909 35.2892 8.30825C35.9818 6.84895 37.8029 5.72063 39.4005 5.59651C40.73 5.4912 42.0557 6.09297 42.9979 7.04453C43.9363 7.99608 44.0071 8.60914 44.2901 9.92551C45.2062 9.77131 46.0329 9.77131 46.9044 10.0985C47.3512 10.2678 47.746 10.5536 48.0998 10.8771C49.1127 11.7985 49.8426 13.0623 50.0251 14.4275C51.0529 14.6231 51.969 14.9955 52.5835 15.8492C53.2017 16.703 53.6262 18.0758 53.4996 19.1251L53.4959 19.1214Z" fill="#BFCDF2"></path><path d="M65.4275 23.9317H45.2732C45.1242 23.093 45.2508 22.337 45.8169 21.7051C46.3829 21.0733 47.2469 20.731 48.0848 20.7987C47.8688 19.535 48.2859 18.3277 49.1387 17.3761C49.9915 16.4283 51.4662 16.2929 52.7324 16.3907C53.2165 15.3715 54.4864 14.5854 55.5999 14.4989C56.5271 14.4274 57.4507 14.8449 58.1061 15.5106C58.7616 16.1763 58.81 16.6013 59.0073 17.519C59.6479 17.41 60.2214 17.41 60.8321 17.6394C61.1449 17.756 61.4205 17.9553 61.6663 18.181C62.3738 18.8241 62.8803 19.7042 63.0069 20.6558C63.7257 20.7912 64.3625 21.0545 64.7907 21.6487C65.2227 22.243 65.5206 23.202 65.4275 23.9317Z" fill="#2C2D40"></path><path d="M33.2372 16.3006H16.9521C16.8292 15.6236 16.9335 15.0105 17.3915 14.5028C17.8496 13.995 18.546 13.7129 19.2238 13.7694C19.0487 12.7501 19.3876 11.7722 20.0766 11.005C20.7655 10.2377 21.9572 10.1286 22.9776 10.2076C23.3686 9.38393 24.3927 8.74831 25.2939 8.68061C26.0424 8.62043 26.7909 8.95893 27.3198 9.49676C27.8486 10.0346 27.8895 10.3806 28.0459 11.1215C28.5636 11.035 29.0291 11.035 29.5206 11.2193C29.7739 11.3134 29.9936 11.4751 30.1947 11.6556C30.7645 12.1747 31.1741 12.8855 31.2784 13.6565C31.8593 13.7656 32.3732 13.9762 32.7196 14.4576C33.0659 14.939 33.308 15.7101 33.2335 16.3043L33.2372 16.3006Z" fill="#2C2D40" stroke="#2C2D40" stroke-miterlimit="10"></path></g></g><defs><clipPath id="clip0_3325_3308"><rect width="72" height="84" fill="white" transform="translate(0.599976)"></rect></clipPath></defs></svg>