<svg xmlns="http://www.w3.org/2000/svg" width="73" height="84" viewBox="0 0 73 84" fill="none"><g clip-path="url(#clip0_3325_3271)"><mask id="mask0_3325_3271" style="mask-type:luminance" maskUnits="userSpaceOnUse" x="0" y="0" width="72" height="84"><path d="M72 47.6416C72 67.722 55.8825 84 36 84C16.1175 84 0 67.722 0 47.6416C0 27.5612 16.1175 0 36 0C55.8825 0 72 27.5612 72 47.6416Z" fill="white"></path></mask><g mask="url(#mask0_3325_3271)"><path d="M36.4401 85.0526C56.0793 85.0526 72 69.1319 72 49.4927C72 29.8536 56.0793 13.9329 36.4401 13.9329C16.801 13.9329 0.880264 29.8536 0.880264 49.4927C0.880264 69.1319 16.801 85.0526 36.4401 85.0526Z" fill="#E5EBFA"></path><path d="M17.5254 31.5532C17.5254 31.5532 23.7641 28.0429 32.9235 25.518C42.0829 22.9931 51.2387 22.1267 51.2387 22.1267C51.2387 22.1267 41.476 29.4968 34.8915 30.8727C28.307 32.2485 17.5254 31.5494 17.5254 31.5494V31.5532Z" fill="black"></path><path d="M12.1143 26.1054C12.7766 26.1054 13.3135 25.5626 13.3135 24.8931C13.3135 24.2236 12.7766 23.6809 12.1143 23.6809C11.452 23.6809 10.9152 24.2236 10.9152 24.8931C10.9152 25.5626 11.452 26.1054 12.1143 26.1054Z" stroke="#2C2D40" stroke-width="0.53" stroke-miterlimit="10"></path><path d="M49.6275 13.3621C49.6275 14.0315 50.1645 14.5744 50.8267 14.5744C51.4888 14.5744 52.0258 14.0315 52.0258 13.3621C52.0258 12.6928 51.4888 12.1499 50.8267 12.1499C50.1645 12.1499 49.6275 12.6928 49.6275 13.3621Z" stroke="#2C2D40" stroke-width="0.53" stroke-miterlimit="10"></path><path d="M12.7544 19.2858C13.4167 19.2858 13.9536 18.7431 13.9536 18.0736C13.9536 17.4041 13.4167 16.8613 12.7544 16.8613C12.0921 16.8613 11.5552 17.4041 11.5552 18.0736C11.5552 18.7431 12.0921 19.2858 12.7544 19.2858Z" stroke="#2C2D40" stroke-width="0.53" stroke-miterlimit="10"></path><path d="M16.4145 28.028C16.4145 28.3627 16.683 28.6341 17.0141 28.6341C17.3451 28.6341 17.6137 28.3627 17.6137 28.028C17.6137 27.6933 17.3451 27.4219 17.0141 27.4219C16.683 27.4219 16.4145 27.6933 16.4145 28.028Z" fill="#2C2D40"></path><path d="M47.1739 8.77348C47.1739 9.10814 47.4425 9.3796 47.7735 9.3796C48.1046 9.3796 48.3731 9.10814 48.3731 8.77348C48.3731 8.43881 48.1046 8.16736 47.7735 8.16736C47.4425 8.16736 47.1739 8.43881 47.1739 8.77348Z" fill="#2C2D40"></path><path d="M49.7452 19.3713C49.7452 19.7059 50.0137 19.9774 50.3448 19.9774C50.6759 19.9774 50.9444 19.7059 50.9444 19.3713C50.9444 19.0366 50.6759 18.7651 50.3448 18.7651C50.0137 18.7651 49.7452 19.0366 49.7452 19.3713Z" fill="#2C2D40"></path><path d="M51.2387 22.1304C51.2387 22.1304 53.8467 22.9521 56.1163 22.8555C58.386 22.7588 61.3251 21.1338 61.3251 21.1338C61.3251 21.1338 60.5121 26.3063 58.7648 27.9238C60.6924 27.6561 62.5684 26.6669 63.477 24.9267C63.7749 26.0162 64.0729 27.1243 64.0251 28.251C63.9478 30.0694 62.9436 31.7725 61.5421 32.9141C60.1406 34.0556 58.3712 34.6692 56.5872 34.9072" fill="#2C2D40"></path><path d="M28.1084 53.894L43.2858 28.8051L53.0227 25.6221C53.0227 25.6221 55.6013 30.5417 56.4584 33.3417C57.3192 36.1418 57.7937 39.3248 57.7937 39.3248L61.3913 45.8583C61.9063 46.7916 61.4869 47.9704 60.5048 48.3645L58.8531 49.0227C58.8531 49.0227 58.4485 58.055 58.1689 59.4346C57.8452 61.0298 57.1794 62.7366 55.7264 63.4469C55.0349 63.7852 54.2477 63.8485 53.4789 63.8745C50.8782 63.9637 48.2665 63.6811 45.743 63.0341L37.4885 77.8859L21.042 66.3436L28.1047 53.8977L28.1084 53.894Z" fill="#E47573"></path><path d="M17.5254 31.5532C14.406 37.2908 17.5769 43.3892 18.4781 45.717C19.3793 48.0448 20.7073 50.1755 22.0977 52.2467C22.7341 53.1912 23.3889 54.1394 23.7935 55.2067C24.1982 56.2739 24.3343 57.4935 23.9076 58.5533C24.452 58.5905 25.0074 58.3228 25.3164 57.8691C24.9375 58.3711 24.5918 59.1669 25.0883 59.5462C25.4194 59.7953 25.8829 59.6466 26.2655 59.4867C27.2807 59.059 28.3144 58.6203 29.1715 57.9249C30.2971 57.0139 31.0548 55.7198 31.7023 54.4146C33.192 51.4212 34.2478 48.2121 34.8326 44.9175C36.2967 44.7427 30.4884 49.8631 37.735 46.126C44.9816 42.3889 43.7272 37.8337 43.5102 35.9261C44.5806 35.8778 54.3323 28.3515 54.8951 29.2328C54.9319 29.2886 54.9135 29.2514 54.9502 29.3109C55.7926 28.0206 55.6197 26.2357 54.8105 24.923C54.0012 23.6104 52.6549 22.7217 51.2423 22.1267C51.2423 22.1267 45.6363 26.3249 34.6892 28.8609C23.742 31.3933 17.5291 31.5532 17.5291 31.5532H17.5254Z" fill="#2C2D40"></path><path d="M30.8378 42.4966C30.9702 44.7091 32.0775 46.8435 33.8063 48.2045C34.3471 48.6321 34.9614 48.9891 35.6419 49.097C37.1721 49.3349 38.6656 48.1785 39.2542 46.732C39.8427 45.2855 39.7029 43.6419 39.3608 42.1173C38.9157 40.1465 37.9226 38.0344 36.0208 37.4134C32.9529 36.4131 30.6796 39.756 30.8415 42.4966H30.8378Z" fill="#E47573"></path><g style="mix-blend-mode:multiply"><path d="M37.6062 47.3492C36.9514 47.0851 36.3702 46.6352 35.9546 46.0588C35.87 45.9436 35.789 45.8171 35.778 45.6721C35.7559 45.4007 35.984 45.1775 36.19 45.0028C36.6093 44.6458 37.0287 44.2888 37.4444 43.9318C37.529 43.8612 37.6136 43.7831 37.654 43.6827C37.6945 43.5674 37.6724 43.441 37.6467 43.322C37.3303 41.8048 36.9404 40.1687 35.7486 39.1907C35.4285 38.9267 35.046 38.7185 34.634 38.6776C34.0234 38.6144 33.4201 38.9267 32.9897 39.3692C32.5593 39.8117 32.2724 40.3732 32.0039 40.931C32.0039 40.931 31.4227 44.0694 33.4422 46.1592C35.4617 48.249 37.6062 47.3454 37.6062 47.3454V47.3492Z" fill="#E47573"></path></g><path d="M32.0039 40.9349C32.2136 40.3287 32.4674 39.7226 32.9161 39.2095C33.1442 38.9566 33.4201 38.7446 33.7401 38.5959C34.0565 38.4472 34.4317 38.3802 34.7995 38.4323C35.1674 38.4843 35.5021 38.6405 35.789 38.8413C36.0723 39.0458 36.3298 39.2801 36.5468 39.5478C36.9845 40.0833 37.2751 40.708 37.4922 41.3365C37.7018 41.9686 37.838 42.6082 37.963 43.2403C37.9777 43.3184 37.9998 43.4151 37.9998 43.5453C38.0035 43.668 37.952 43.8465 37.8711 43.9543C37.6982 44.1662 37.5841 44.2146 37.4591 44.3299C37.2126 44.5307 36.9625 44.7277 36.7123 44.9248C36.4696 45.1256 36.179 45.3153 36.0539 45.4938C35.9914 45.5867 35.973 45.6574 36.0061 45.7652C36.0392 45.873 36.1348 46.0069 36.2231 46.1296C36.5726 46.6316 37.0544 47.0481 37.6136 47.3567C36.9956 47.1894 36.4217 46.8324 35.9619 46.3453C35.8516 46.2189 35.7375 46.1073 35.6456 45.9177C35.5426 45.7317 35.561 45.4454 35.6676 45.2669C35.7633 45.081 35.8994 44.9509 36.0208 44.8356L36.3702 44.5084C36.602 44.289 36.8374 44.0733 37.0765 43.865C37.1869 43.7646 37.345 43.6345 37.3634 43.5899C37.3745 43.5676 37.3634 43.5862 37.3671 43.5453C37.3671 43.5118 37.3524 43.4523 37.334 43.3742C37.1942 42.7532 37.0544 42.1397 36.8521 41.5596C36.6645 40.9758 36.407 40.4217 36.0502 39.9569C35.7044 39.4921 35.2299 39.0905 34.7149 38.964C34.1999 38.8413 33.6077 39.0644 33.1589 39.4549C32.6954 39.8453 32.357 40.3957 32.0149 40.9386L32.0039 40.9349Z" fill="#2C2D40"></path><g style="mix-blend-mode:overlay"><path d="M26.5119 34.052C26.3905 34.7771 26.1882 35.4911 25.9418 36.1902C25.6732 36.8855 25.3863 37.5548 24.989 38.2056C24.7757 38.5179 24.5145 38.8489 24.0804 38.9716C23.9738 38.9976 23.8561 39.0088 23.731 38.9828C23.6059 38.9567 23.4882 38.8824 23.4073 38.782C23.2491 38.5737 23.2344 38.3506 23.2123 38.1684C23.1314 37.4247 23.1204 36.6698 23.2123 35.9261L23.5838 36.0005C23.3227 36.9115 22.7819 37.7296 22.0573 38.3209C21.8807 38.451 21.6747 38.6592 21.3363 38.6295C21.1524 38.6146 21.0016 38.4287 20.9868 38.28C20.9611 38.1312 20.9684 38.0271 20.9648 37.9081C20.9684 37.4396 21.0457 36.9748 21.1855 36.5323L21.3804 36.6289C21.1193 36.9859 20.836 37.3355 20.4939 37.6255C20.1592 37.9155 19.7398 38.1424 19.2984 38.1498C19.7362 38.0866 20.1114 37.8375 20.413 37.5325C20.7183 37.2239 20.9611 36.8632 21.2039 36.5025C21.237 36.4542 21.3069 36.4393 21.3547 36.4728C21.3951 36.4988 21.4099 36.5471 21.3988 36.5918C21.2848 37.0231 21.237 37.4656 21.2554 37.9044C21.2627 38.0122 21.2664 38.1349 21.2848 38.2093C21.3069 38.2874 21.3326 38.2986 21.3804 38.306C21.4319 38.3097 21.5239 38.2837 21.6011 38.2391C21.6784 38.1982 21.7593 38.1238 21.8439 38.0568C22.5061 37.4954 22.9916 36.7293 23.216 35.8927C23.2454 35.7885 23.3484 35.7291 23.4514 35.7588C23.5434 35.7848 23.6022 35.8741 23.5912 35.967C23.5103 36.6847 23.4919 37.4098 23.5618 38.1312C23.5765 38.3097 23.6022 38.4733 23.6721 38.5626C23.7383 38.6481 23.8487 38.6741 23.9922 38.6444C24.2754 38.5774 24.5255 38.306 24.7315 38.0345C25.1325 37.4544 25.4636 36.7851 25.7542 36.1232C26.0558 35.4576 26.2949 34.766 26.5046 34.0594L26.5119 34.052Z" fill="#BFCDF2"></path><path d="M23.5838 42.98C23.834 43.415 24.0437 43.8724 24.2165 44.3447C24.3894 44.8206 24.5292 45.3003 24.6249 45.8098C24.6653 46.0664 24.6947 46.3713 24.5292 46.665C24.4556 46.8026 24.2791 46.9551 24.0694 46.9514C23.8671 46.9439 23.7347 46.851 23.6243 46.7729C23.2013 46.4568 22.8518 46.0366 22.6422 45.5532L22.9585 45.4045C23.0578 45.6462 23.1424 45.9065 23.1682 46.1816C23.1939 46.4531 23.1608 46.7468 23.0321 46.996C22.9107 47.2451 22.69 47.4608 22.4214 47.5277C22.164 47.5984 21.8623 47.5426 21.6894 47.3492C21.8991 47.4943 22.1676 47.4943 22.3773 47.4013C22.5907 47.3083 22.7378 47.115 22.815 46.903C22.8923 46.6873 22.9033 46.4531 22.8629 46.2262C22.8224 45.9994 22.7378 45.7726 22.6348 45.5532C22.5943 45.464 22.6311 45.3598 22.7194 45.3189C22.804 45.278 22.907 45.3115 22.9511 45.397V45.4082C23.1719 45.8246 23.4735 46.1928 23.8524 46.4642C23.9407 46.5312 24.0289 46.5758 24.0768 46.5758C24.1209 46.5758 24.165 46.5535 24.2129 46.4791C24.3012 46.3341 24.3159 46.1035 24.2828 45.873C24.2129 45.397 24.1135 44.9062 23.9958 44.4265C23.8781 43.9468 23.7383 43.4671 23.5838 42.9911V42.98Z" fill="#BFCDF2"></path><path d="M29.8704 50.5845C29.9182 51.0419 29.8924 51.5141 29.7931 51.9715C29.6901 52.4326 29.543 52.8714 29.2892 53.2953C29.1604 53.5035 28.9544 53.7229 28.6675 53.7936C28.5277 53.827 28.3769 53.8345 28.2261 53.7824C28.0753 53.7378 27.9392 53.6188 27.8656 53.4924C27.7221 53.2395 27.678 53.0238 27.6228 52.7784C27.575 52.5404 27.564 52.295 27.5787 52.0533V52.0458C27.586 51.9492 27.667 51.8748 27.7626 51.8822C27.8546 51.886 27.9245 51.964 27.9245 52.057C27.9245 52.2764 27.9245 52.5107 27.873 52.7486C27.8251 52.9829 27.7185 53.2283 27.5309 53.392C27.3543 53.563 27.0858 53.6597 26.8467 53.589C26.6076 53.5221 26.4457 53.3436 26.328 53.1614C26.4862 53.3101 26.6738 53.444 26.8724 53.4626C27.0674 53.4812 27.2476 53.3771 27.369 53.2321C27.6228 52.9309 27.6044 52.4995 27.5824 52.0682H27.9281C27.9281 52.2838 27.9539 52.4995 27.9943 52.7077C28.0385 52.9085 28.1084 53.1428 28.193 53.2841C28.2702 53.418 28.4063 53.4589 28.5792 53.4254C28.7411 53.3882 28.8845 53.2655 29.0022 53.0982C29.234 52.7486 29.4253 52.3285 29.5687 51.912C29.7122 51.4881 29.8152 51.0456 29.8704 50.5882V50.5845Z" fill="#BFCDF2"></path><path d="M40.6998 30.2776C40.4938 30.999 40.1701 31.6906 39.7508 32.3191C39.3277 32.9475 38.8128 33.5127 38.2279 33.9998C37.9336 34.2415 37.6209 34.4609 37.2935 34.6506C37.128 34.751 36.9404 34.8439 36.7307 34.8886C36.5284 34.9369 36.2415 34.922 36.0465 34.7287C35.8479 34.5353 35.8222 34.2824 35.8038 34.0928C35.789 33.8957 35.7854 33.6986 35.7964 33.5053C35.8148 33.1148 35.8957 32.7244 36.0245 32.3525C36.0576 32.2484 36.1679 32.1963 36.2672 32.2335C36.3592 32.267 36.4107 32.3637 36.3886 32.4604C36.2746 32.9475 36.0539 33.4011 35.7486 33.7879C35.4433 34.1746 35.0607 34.4944 34.6303 34.7287C34.1926 34.9443 33.7291 35.1079 33.2141 35.0708C33.0854 35.0559 32.9566 35.0261 32.8352 34.9629C32.7727 34.9295 32.7212 34.896 32.666 34.8439C32.5998 34.7844 32.5704 34.7063 32.552 34.632C32.5115 34.3419 32.6035 34.1114 32.7102 33.8883L32.8352 34.0035C32.552 34.1486 32.2651 34.2824 31.9671 34.394C31.6728 34.5055 31.3638 34.6059 31.0512 34.6134C31.3638 34.565 31.6508 34.4349 31.9303 34.3047C32.2099 34.1709 32.4858 34.0147 32.7469 33.8511C32.7874 33.8251 32.8426 33.8362 32.8683 33.8808C32.883 33.9031 32.8867 33.9329 32.8757 33.9589V33.9701C32.7984 34.1709 32.7286 34.4126 32.769 34.5874C32.7837 34.6245 32.7984 34.6617 32.8242 34.6766C32.8536 34.7026 32.9014 34.7324 32.9456 34.751C33.0339 34.7919 33.1332 34.8105 33.2362 34.8179C33.6555 34.8291 34.0969 34.6543 34.4758 34.4423C34.8584 34.2229 35.1968 33.9217 35.4617 33.5685C35.7265 33.2152 35.9215 32.8099 36.0171 32.3786L36.3813 32.4864C36.2673 32.8248 36.201 33.178 36.1753 33.5313C36.1643 33.7098 36.1643 33.8883 36.1753 34.0668C36.1863 34.2415 36.2231 34.394 36.3004 34.4646C36.4475 34.6245 36.8301 34.5279 37.117 34.3494C37.437 34.1783 37.735 33.9701 38.0292 33.7544C38.6141 33.3193 39.1401 32.7987 39.5816 32.2075C40.0377 31.6274 40.4019 30.973 40.6925 30.2813L40.6998 30.2776Z" fill="#BFCDF2"></path><path d="M49.381 24.8188C49.5539 25.161 49.6165 25.5626 49.5723 25.9642C49.5208 26.362 49.3222 26.7562 49.0095 27.0314C48.7042 27.3065 48.2628 27.4739 47.8324 27.4107C47.413 27.3512 46.9937 27.1095 46.784 26.7004L47.1408 26.6558C47.0526 27.0165 46.8649 27.34 46.6185 27.5966C46.3757 27.8569 46.0814 28.0577 45.7651 28.1953C45.4524 28.3366 45.1177 28.4184 44.7903 28.4667C44.4592 28.5076 44.1282 28.5299 43.7971 28.5225C44.1208 28.4481 44.4408 28.3886 44.7498 28.2919C45.0588 28.199 45.3605 28.0837 45.6363 27.9313C46.1771 27.6263 46.6369 27.1429 46.7656 26.5666C46.7877 26.4624 46.8907 26.3992 46.9937 26.4215C47.0489 26.4327 47.093 26.4699 47.1188 26.5145C47.2659 26.7897 47.5602 26.9905 47.8802 27.0351C48.1966 27.0946 48.535 26.9905 48.8035 26.7822C49.0757 26.574 49.278 26.2691 49.37 25.9232C49.473 25.5737 49.4583 25.1907 49.3737 24.8188H49.381Z" fill="#BFCDF2"></path></g><g style="mix-blend-mode:multiply" opacity="0.19"><path d="M45.8387 63.0824C42.7046 61.4351 39.9347 59.085 37.7865 56.2515C39.2689 59.8101 41.5238 63.1121 44.2863 65.782" fill="#2C6E7B"></path></g><path d="M5.13995 85.6576C5.13995 85.6576 17.9043 65.7524 22.1603 64.2278C26.4163 62.7032 35.1931 69.4263 40.9536 74.1748C46.7141 78.9234 53.4531 87 53.4531 87L5.13995 85.6576Z" fill="#74B8FC"></path><g style="mix-blend-mode:multiply" opacity="0.32"><path d="M46.5707 46.8437C46.7031 48.2418 48.5791 49.2049 50.7605 48.993C52.9418 48.781 54.6008 47.4795 54.4684 46.0814C54.3359 44.6832 52.4599 43.7201 50.2786 43.9321C48.0972 44.144 46.4382 45.4455 46.5707 46.8437Z" fill="#FF7673"></path></g><path d="M59.2614 47.9071C58.5404 48.2306 57.8452 48.5281 57.1684 48.8813L56.9661 48.9892L56.8962 48.766C56.646 47.9443 56.7417 47.0035 57.2052 46.3081C57.0396 47.1187 57.0433 47.9108 57.264 48.6545L56.9918 48.5355C57.6981 48.1822 58.4705 47.9405 59.2577 47.9108L59.2614 47.9071Z" fill="#2C2D40"></path><path d="M56.2083 40.0314C56.2083 40.8346 55.7411 41.4891 55.1673 41.4891C54.5934 41.4891 54.1263 40.8383 54.1263 40.0314C54.1263 39.2245 54.5934 38.5737 55.1673 38.5737C55.7411 38.5737 56.2083 39.2245 56.2083 40.0314Z" fill="#2C2D40"></path><path d="M58.5625 54.7567C57.7643 54.8571 56.944 55.0207 56.1347 55.1881C55.3254 55.3628 54.5125 55.545 53.7179 55.7905C54.4684 55.4298 55.2519 55.1286 56.0317 54.8311C56.8189 54.541 57.5987 54.2584 58.4227 54.0242L58.5625 54.753V54.7567Z" fill="#2C2D40"></path><path d="M57.161 35.941C56.1973 36.9339 54.8656 37.4991 53.5083 37.7371C52.1546 37.9751 50.7641 37.9118 49.3921 37.7891C52.2098 37.4842 54.8583 35.7439 56.521 33.4236C56.83 34.2714 57.0286 35.0486 57.1573 35.941H57.161Z" fill="#2C2D40"></path><path d="M34.108 7.27859C30.4626 7.27859 26.8319 8.55776 23.9701 10.8409C23.1866 11.4656 22.4509 12.1759 21.9359 13.0386C20.4902 15.4668 21.1561 18.8543 23.1903 20.8028C25.2245 22.7551 28.3548 23.3017 31.0475 22.5134C33.7401 21.725 35.9914 19.7356 37.4848 17.3335C38.2316 16.1324 38.8164 14.7714 38.787 13.3547C38.7318 10.5472 36.0723 8.21566 33.295 8.09295C30.5178 7.97023 27.8766 9.72909 26.4163 12.1164C25.7137 13.2654 25.2392 14.5929 25.2943 15.939C25.3495 17.2888 25.9933 18.6498 27.1336 19.3526C28.3585 20.1112 29.9292 20.0145 31.3197 19.6427C33.8505 18.9659 36.1532 17.4339 37.7754 15.3552C38.798 14.0426 39.5742 12.3135 39.0703 10.7182C38.4559 8.78087 36.076 7.84752 34.1153 8.32349C32.1584 8.79946 30.6134 10.3315 29.4621 12.0011C28.2482 13.76 27.3285 15.9018 27.7185 18.0102C28.2151 20.7099 30.8746 22.6621 33.5856 22.8518C36.2967 23.0414 38.9489 21.7362 40.9426 19.8695C41.8696 19.0031 42.6972 17.9879 43.1203 16.7868C43.5433 15.5858 43.5175 14.1764 42.8333 13.1055C42.2485 12.1945 41.2553 11.6181 40.2253 11.3206C37.2568 10.4542 33.788 11.8672 32.243 14.5743C30.698 17.2814 31.2204 21.0222 33.4495 23.1901C35.6787 25.358 39.3976 25.741 42.013 24.0751C43.3925 23.1976 44.4445 21.8292 45.0404 20.2934C45.8791 18.1404 45.7651 15.4965 44.2974 13.7191C42.9106 12.0346 40.5343 11.4024 38.3934 11.7594C36.2525 12.1164 34.336 13.3286 32.7286 14.7974C30.1058 17.1959 28.0973 20.5835 28.2997 24.157C28.3659 25.3394 28.7779 26.6446 29.8299 27.169C30.5987 27.552 31.5294 27.4144 32.3129 27.0648C34.7775 25.9642 36.0171 22.822 35.2704 20.2079C34.5236 17.5938 32.0554 15.6676 29.3922 15.266C26.7694 14.8718 23.9296 15.913 22.3405 18.0586C20.7551 20.2042 20.6116 23.4021 22.1823 25.5626C23.7494 27.723 26.9828 28.5188 29.2634 27.1504C29.9991 26.7079 30.6134 26.0869 31.1394 25.4064C32.8978 23.1269 33.6077 19.6687 31.8384 17.3967C31.1247 16.4782 30.0984 15.8647 29.0574 15.3552C27.3065 14.4962 25.1288 13.8976 23.4882 14.9611C21.7041 16.1212 21.4761 18.8246 22.4546 20.7248C22.9879 21.7659 23.8708 22.6844 24.9964 22.9707C26.0926 23.2496 27.277 22.8852 28.1856 22.2084C29.0942 21.5317 29.76 20.5723 30.3044 19.572C32.1657 16.1696 32.8242 12.1796 34.8253 8.85524C35.1858 8.25656 35.6051 7.66532 36.1974 7.28974C37.5915 6.40474 39.4271 6.99598 40.8837 7.76943C43.2637 9.03745 45.5481 10.9674 46.1219 13.6261C46.5229 15.4705 46.0189 17.4376 45.0257 19.0403C44.0325 20.6392 42.5869 21.9072 41.0309 22.9559C38.7245 24.5102 36.0355 25.6518 33.2619 25.5551C30.492 25.4584 27.6633 23.919 26.5781 21.3383C26.0043 19.9773 25.9454 18.4416 26.122 16.9728C26.5193 13.6224 30.7569 7.94049 30.6944 8.44992C30.6318 8.95936 25.2907 11.488 23.227 13.5926C21.6747 15.1767 20.0635 17.1959 20.5013 19.3824C20.7661 20.695 21.7336 21.7436 22.7672 22.5766C26.8871 25.8861 32.7984 26.7525 37.6761 24.7556C39.6625 23.945 41.5348 22.6212 42.528 20.7024C43.7125 18.4081 43.444 15.504 42.1271 13.284C40.8102 11.0678 38.5516 9.51342 36.1054 8.74369C33.6592 7.97395 31.0364 7.94049 28.502 8.28259C30.7201 7.62441 32.9603 6.9588 35.2704 6.83609C37.5768 6.71337 39.9935 7.17447 41.8401 8.58007C44.176 10.3575 45.2979 13.4922 45.0147 16.4299C44.7314 19.3712 43.1681 22.0895 41.0493 24.1235C40.034 25.0977 38.8753 25.9418 37.5621 26.4327C36.087 26.9867 34.4722 27.0797 32.9125 26.8938C27.3874 26.243 22.3773 21.725 21.6159 16.1547C21.3952 14.526 21.5239 12.8155 22.2081 11.3206C23.5986 8.29746 27.0416 6.69478 30.3339 6.52745C32.0701 6.4382 33.8542 6.68734 35.4028 7.48683C36.9514 8.28631 38.2499 9.66588 38.7282 11.3578C39.2284 13.1278 38.8128 15.0429 38.0991 16.7348C36.4438 20.6839 33.1589 23.9004 29.2046 25.451C27.2219 26.2282 25.0516 26.6 22.9511 26.2616C20.8507 25.9233 18.8349 24.8337 17.5806 23.0972C16.1276 21.0855 15.837 18.278 16.8486 16.006C17.7829 13.9087 19.7141 12.3655 21.855 11.5921C23.9995 10.8186 26.339 10.7591 28.5976 11.0492" stroke="#2C2D40" stroke-width="0.5" stroke-miterlimit="10"></path></g></g><defs><clipPath id="clip0_3325_3271"><rect width="72" height="84" fill="white" transform="translate(0.399994)"></rect></clipPath></defs></svg>