<svg xmlns="http://www.w3.org/2000/svg" width="72" height="84" viewBox="0 0 72 84" fill="none"><g clip-path="url(#clip0_3330_3525)"><path d="M36 84.0027C55.8822 84.0027 72 67.8849 72 48.0027C72 28.1204 55.8822 12.0027 36 12.0027C16.1177 12.0027 0 28.1204 0 48.0027C0 67.8849 16.1177 84.0027 36 84.0027Z" fill="#48C5DE"></path><mask id="mask0_3330_3525" style="mask-type:luminance" maskUnits="userSpaceOnUse" x="-1" y="11" width="74" height="74"><path d="M50.2482 81.2772C68.714 73.3207 77.2336 51.9012 69.2771 33.4354C61.3206 14.9696 39.9012 6.45008 21.4353 14.4065C2.96951 22.363 -5.55001 43.7825 2.40645 62.2483C10.3629 80.7141 31.7824 89.2337 50.2482 81.2772Z" fill="white"></path></mask><g mask="url(#mask0_3330_3525)"><path d="M62.2808 36.0192C62.2808 36.0192 66.8809 33.8442 73.0119 32.0633C79.1429 30.2823 90.124 30.4036 90.124 30.4036L92.1702 69.2355L66.2443 68.5989L62.2884 36.0268L62.2808 36.0192Z" fill="#F6FBFA"></path><path d="M31.1713 35.5644C32.8764 36.2768 34.4148 37.459 36.2337 37.7773C37.6584 38.0198 39.1135 37.7091 40.561 37.6485C45.5703 37.4514 50.5342 40.6874 52.3757 45.3557C52.9744 46.8714 53.2624 48.5008 53.3458 50.1301C53.4291 51.714 53.3079 53.351 52.6486 54.7909C52.2318 55.6927 51.6179 56.496 50.951 57.2236C50.2538 57.989 49.4732 58.6938 48.5714 59.2091C47.5938 59.7699 46.4949 60.0958 45.3884 60.3307C40.7504 61.3235 35.5592 60.7324 31.8912 57.7237C27.8974 54.4423 26.3969 48.7812 27.1926 43.6733C27.3517 42.6578 27.5791 41.5589 27.0865 40.6571C26.8819 40.2782 26.5636 39.9675 26.2908 39.634C25.6163 38.7928 20.3493 35.9585 21.4557 35.0112C22.5849 34.0411 28.5794 34.5034 31.1561 35.572L31.1713 35.5644Z" fill="#2C2D40"></path><path d="M33.9222 44.3176C33.9222 44.3176 37.3704 45.8485 39.6667 46.1062C41.963 46.3638 42.7284 46.1062 42.7284 46.1062C42.7284 46.1062 44.0091 48.2812 43.6226 50.0621C43.2361 51.8506 40.1745 55.8066 38.1283 55.9354C36.0821 56.0642 27.2684 52.8661 27.2684 52.8661L33.9071 44.3101L33.9222 44.3176Z" fill="#DB8474"></path><path d="M38.7724 56.0717C38.7724 56.0717 41.4552 52.7523 41.008 49.5542C40.5609 46.3637 39.2195 45.3406 38.2646 44.128C37.3098 42.9155 32.1943 37.0422 35.3924 33.9729C38.5829 30.9037 44.0167 33.5258 45.5475 34.4201C47.0784 35.3143 48.9957 36.6557 48.9957 36.6557C48.9957 36.6557 56.0209 37.3605 57.6806 37.55C59.3403 37.7394 62.023 51.7292 62.4702 54.6621C62.9173 57.5949 63.0461 67.6288 63.0461 67.6288L42.8648 67.6894L38.78 56.0641L38.7724 56.0717Z" fill="#CA4D37"></path><path d="M55.3464 36.6558C55.3464 36.6558 58.158 47.3869 58.9235 54.2833C59.6889 61.1797 59.8177 67.5683 59.8177 67.5683H67.866C67.866 67.5683 68.1237 56.7084 67.1006 49.9409C66.0775 43.1733 62.887 35.125 62.887 35.125L55.354 36.6558H55.3464Z" fill="#FFC775"></path><path d="M20.372 37.5424C20.372 37.5424 27.0031 35.5341 32.3004 38.9065C35.6274 41.0285 36.7793 45.28 36.2488 47.9173C35.7183 50.5622 33.5281 51.8732 31.1106 52.9039C28.6931 53.9346 23.661 52.9039 20.7509 52.4719C17.8408 52.04 15.1807 50.4788 15.1807 50.4788L20.372 37.5348V37.5424Z" fill="#E3A094"></path><path d="M47.465 47.5156L33.0281 54.0331C33.0281 54.0331 35.4532 56.2081 36.7339 56.8447C38.0147 57.4813 40.8187 57.7389 40.8187 57.7389C40.8187 57.7389 55.2556 53.6542 57.9308 51.2215C60.6136 48.7964 59.4617 48.1522 58.4386 46.2424C57.4155 44.3251 53.1337 40.1721 52.1788 39.3461C49.2384 36.7921 45.1536 45.477 45.1536 45.477L47.4498 47.5232L47.465 47.5156Z" fill="#E3A094"></path><path d="M40.5609 58.7545C40.5609 58.7545 48.2227 57.9891 54.6113 59.0122C61 60.0353 61.7654 61.4373 62.0231 63.6123C62.2807 65.7873 56.9152 67.9547 50.6554 67.8259C44.3956 67.6971 40.8186 67.3181 40.8186 67.3181L40.5609 58.7621V58.7545Z" fill="#E3A094"></path><path d="M4.29058 68.849C4.29058 68.849 -0.817288 64.7642 0.971224 59.2698C2.75974 53.7755 7.99644 51.4792 15.4082 50.9639C22.8199 50.4561 35.203 52.2446 39.2954 55.4352C43.3802 58.6257 44.7898 61.4373 45.0399 64.12C45.2975 66.8028 44.2744 68.3337 44.2744 68.3337L4.29816 68.8414L4.29058 68.849Z" fill="#F6FBFA"></path><path d="M1.72907 62.5967C8.21622 62.2936 14.7185 62.1799 21.2132 62.2557C24.4189 62.2936 27.6322 62.2708 30.8454 62.3466C34.1269 62.4224 37.4084 62.7786 40.6898 62.7558C40.9096 62.7558 40.9778 62.3921 40.7429 62.3542C37.6206 61.9298 34.4452 61.9298 31.3001 61.7934C28.0111 61.6494 24.7296 61.4675 21.4406 61.4675C14.8625 61.4599 8.292 61.6494 1.72907 62.0283C1.35773 62.051 1.35773 62.627 1.72907 62.6043V62.5967Z" fill="#FFF4E4"></path><path d="M6.1093 67.2651H91.003V96.0026H1.85022V71.5242C1.85022 69.1749 3.75999 67.2651 6.1093 67.2651Z" fill="#FFDAA5"></path><path d="M29.9132 35.7085C28.102 34.9507 26.1013 34.7688 24.146 34.6854C22.8956 34.6324 21.5315 34.6854 20.3568 35.2084C18.8942 35.8677 18.4698 37.2015 17.7271 38.505C17.1208 39.566 15.9992 40.2101 15.0443 40.968C12.2934 43.143 10.6413 46.6366 10.717 50.1455C10.7246 50.532 10.7625 50.9488 10.9899 51.2595C11.3082 51.699 11.8917 51.8354 12.4298 51.9264C15.1504 52.3735 17.9241 52.472 20.6675 52.2068C20.7964 51.9188 20.5539 51.5854 20.2659 51.4414C19.9779 51.2974 19.652 51.2595 19.3716 51.1079C18.7426 50.7593 18.5835 49.8954 18.7578 49.1982C18.9321 48.5009 19.3565 47.9022 19.6596 47.2505C20.1143 46.2729 20.2886 45.1664 20.1598 44.0903C20.0385 43.0672 19.6444 42.0972 19.5383 41.0741C19.4322 40.051 19.6899 38.8915 20.5539 38.3307C21.7285 37.5728 23.2518 38.3004 24.6159 38.6187C27.7079 39.3386 31.3834 37.8684 33.9071 39.7933C33.3614 37.9063 31.7396 36.474 29.9284 35.7161L29.9132 35.7085Z" fill="#2C2D40"></path></g></g><defs><clipPath id="clip0_3330_3525"><rect width="72" height="84" rx="36" fill="white"></rect></clipPath></defs></svg>