<svg xmlns="http://www.w3.org/2000/svg" width="72" height="84" viewBox="0 0 72 84" fill="none"><g clip-path="url(#clip0_3330_3452)"><g clip-path="url(#clip1_3330_3452)"><path d="M36.0033 84.0767C55.8874 84.0767 72.0066 67.9418 72.0066 48.0384C72.0066 28.1349 55.8874 12 36.0033 12C16.1192 12 0 28.1349 0 48.0384C0 67.9418 16.1192 84.0767 36.0033 84.0767Z" fill="#C7EEFC"></path><mask id="mask0_3330_3452" style="mask-type:luminance" maskUnits="userSpaceOnUse" x="0" y="12" width="73" height="73"><path d="M36.0033 84.0767C55.8874 84.0767 72.0066 67.9418 72.0066 48.0384C72.0066 28.1349 55.8874 12 36.0033 12C16.1192 12 0 28.1349 0 48.0384C0 67.9418 16.1192 84.0767 36.0033 84.0767Z" fill="white"></path></mask><g mask="url(#mask0_3330_3452)"><path d="M59.6737 63.6257L36.9658 68.9013C36.7136 68.961 36.4614 69.0142 36.2025 69.0541C27.9252 70.4759 22.0839 65.0144 23.0331 56.7224C23.0597 56.4765 23.1061 56.2373 23.1659 55.9981C23.8031 53.3205 26.1064 51.3671 28.8545 51.1678L55.9034 47.3872L59.667 63.6257H59.6737Z" fill="#F99273"></path><path d="M61.4791 51.3006L51.6021 53.5928L50.4537 48.6495L60.3307 46.3573C61.6915 46.0383 63.0589 46.8888 63.3709 48.2575C63.6895 49.6196 62.8398 50.9883 61.4724 51.3006H61.4791Z" fill="#F99273"></path><path d="M60.968 50.3838L58.585 50.9353L57.835 47.6929L60.2179 47.1414C61.114 46.9354 62.0035 47.4935 62.2159 48.3839C62.4217 49.2808 61.8641 50.1712 60.9746 50.3838H60.968Z" fill="white"></path><path d="M61.4725 55.2739L53.9519 57.0213L53.0757 53.2541L60.5963 51.5066C61.6318 51.2674 62.6739 51.9119 62.9129 52.9551C63.1518 53.9916 62.508 55.0347 61.4658 55.2739H61.4725Z" fill="#F99273"></path><path d="M62.3487 59.0344L54.8281 60.7818L53.9519 57.0146L61.4725 55.2671C62.508 55.0279 63.5501 55.6724 63.7891 56.7156C64.0281 57.7521 63.3842 58.7952 62.3421 59.0344H62.3487Z" fill="#F99273"></path><path d="M63.2182 62.8017L55.6976 64.5492L54.8214 60.7819L62.342 59.0345C63.3775 58.7953 64.4196 59.4398 64.6586 60.4829C64.8976 61.526 64.2537 62.5625 63.2116 62.8017H63.2182Z" fill="#F99273"></path><path d="M31.4166 5.07666L13.1893 9.30904L24.8651 58.1442L43.0925 53.9052L31.4166 5.07666Z" fill="#F99273"></path><path d="M61.3066 54.5032L59.6604 54.882L59.1426 52.6429L60.7888 52.2641C61.4061 52.118 62.0234 52.5033 62.1695 53.1212C62.3155 53.7392 61.9305 54.3571 61.3132 54.5032H61.3066Z" fill="white"></path><path d="M62.1761 58.2703L60.5299 58.649L60.0121 56.4099L61.6583 56.0312C62.2756 55.885 62.8929 56.2704 63.039 56.8883C63.185 57.5062 62.8 58.1242 62.1827 58.2703H62.1761Z" fill="white"></path><path d="M63.0523 62.0377L61.4061 62.4164L60.8884 60.1773L62.5345 59.7986C63.1518 59.6524 63.7692 60.0377 63.9152 60.6557C64.0612 61.2736 63.6762 61.8915 63.0589 62.0377H63.0523Z" fill="white"></path></g><g style="mix-blend-mode:multiply" opacity="0.3"><path d="M21.3471 57.7656C28.3087 57.7656 33.9522 52.1166 33.9522 45.1482C33.9522 38.1798 28.3087 32.5308 21.3471 32.5308C14.3855 32.5308 8.74194 38.1798 8.74194 45.1482C8.74194 52.1166 14.3855 57.7656 21.3471 57.7656Z" fill="#FE5647"></path></g><path d="M21.3471 52.8489C25.5959 52.8489 29.0403 49.4011 29.0403 45.1482C29.0403 40.8952 25.5959 37.4475 21.3471 37.4475C17.0983 37.4475 13.6539 40.8952 13.6539 45.1482C13.6539 49.4011 17.0983 52.8489 21.3471 52.8489Z" fill="#FE5647"></path><path d="M21.3471 49.985C24.0159 49.985 26.1794 47.8194 26.1794 45.148C26.1794 42.4766 24.0159 40.311 21.3471 40.311C18.6783 40.311 16.5148 42.4766 16.5148 45.148C16.5148 47.8194 18.6783 49.985 21.3471 49.985Z" stroke="#22386D" stroke-width="0.75" stroke-linecap="round" stroke-linejoin="round" stroke-dasharray="0.64 1.28"></path><path d="M19.4221 62.8086C16.7073 66.3367 20.8559 65.9513 22.3427 67.1739C24.0221 68.5559 22.7145 71.0342 24.5996 72.0242C26.2723 72.9012 27.2746 71.1405 29.0735 71.8248C30.109 72.2168 30.4873 73.838 31.9874 74.1237C34.2841 74.5623 34.9877 72.3962 37.2047 72.0242C39.7603 71.5923 40.5966 74.3563 42.5282 74.1437C44.0682 73.9709 44.3669 71.2734 46.0396 70.888C47.7389 70.496 48.9271 72.6487 50.5533 72.3298C52.1928 72.0109 52.6973 69.8515 54.4032 69.2668C55.2728 68.9678 56.441 69.6787 57.1114 69.3665C57.9743 68.9612 58.7311 67.4064 59.4546 66.6689" stroke="#22386D" stroke-width="0.75" stroke-linecap="round" stroke-linejoin="round"></path><path d="M40.5502 28.5974C38.061 30.8232 39.2625 31.594 40.8821 33.255C42.8269 35.2416 41.1144 35.2749 41.4197 37.2681C41.7583 39.5006 43.7496 38.3179 44.566 39.6136C45.1701 40.5637 44.0748 41.3676 44.6059 42.4041C45.3758 43.9124 46.0728 43.2214 47.4933 43.2812C50.0356 43.3808 49.8497 44.4439 51.6552 45.0884C53.7594 45.8392 54.297 43.6798 55.8303 43.2745C57.742 42.7696 58.4655 44.6831 60.3374 44.6233" stroke="#22386D" stroke-width="0.75" stroke-linecap="round" stroke-linejoin="round"></path></g></g><defs><clipPath id="clip0_3330_3452"><rect width="72" height="84" fill="white"></rect></clipPath><clipPath id="clip1_3330_3452"><rect width="72.0066" height="72.0767" fill="white" transform="translate(0 12)"></rect></clipPath></defs></svg>