<svg xmlns="http://www.w3.org/2000/svg" width="73" height="84" viewBox="0 0 73 84" fill="none"><g clip-path="url(#clip0_3330_5164)"><g clip-path="url(#clip1_3330_5164)"><g clip-path="url(#clip2_3330_5164)"><mask id="mask0_3330_5164" style="mask-type:luminance" maskUnits="userSpaceOnUse" x="1" y="1" width="72" height="83"><path d="M72.474 47.9365C72.474 67.5499 56.5383 83.4493 36.8802 83.4493C17.2221 83.4493 1.28647 67.5499 1.28647 47.9365C1.28647 28.3231 17.2221 1.40283 36.8802 1.40283C56.5383 1.40283 72.474 28.3231 72.474 47.9365Z" fill="white"></path></mask><g mask="url(#mask0_3330_5164)"><path d="M36.8802 83.4495C56.5381 83.4495 72.474 67.5498 72.474 47.9366C72.474 28.3235 56.5381 12.4238 36.8802 12.4238C17.2223 12.4238 1.28647 28.3235 1.28647 47.9366C1.28647 67.5498 17.2223 83.4495 36.8802 83.4495Z" fill="#E2E7F7"></path><g clip-path="url(#clip3_3330_5164)"><path d="M11.92 93.3314C11.92 93.3314 1.53683 75.0956 5.79321 73.5931C10.0533 72.0869 70.887 73.0347 76.6567 77.7259C82.4227 82.4171 60.2792 94.6612 60.2792 94.6612L11.92 93.3351V93.3314Z" fill="#74B8FC"></path><path d="M47.7826 50.2876C47.7752 52.9657 49.9439 55.1441 52.6281 55.1552C55.3122 55.1625 57.4956 52.9987 57.5067 50.3207C57.5141 47.6426 55.3454 45.4642 52.6612 45.4531C49.977 45.4458 47.7936 47.6096 47.7826 50.2876Z" fill="#FFACA0"></path><path d="M54.8741 48.6455C52.9079 48.594 51.4425 49.7365 51.089 51.6762C51.0411 51.9297 51.008 52.1868 50.9564 52.4476C50.9491 52.1868 50.9564 51.9223 50.9564 51.6578C51.0853 49.5969 52.8343 48.2009 54.8778 48.6491L54.8741 48.6455Z" fill="#2C2D40"></path><path d="M54.4506 51.2059C53.6075 50.4308 52.4734 50.1589 51.3688 50.4492C52.363 49.7438 53.902 50.1296 54.4506 51.2059Z" fill="#2C2D40"></path><path d="M25.05 51.25C25.061 54.0089 22.8261 56.2498 20.0609 56.2608C17.2957 56.2718 15.0497 54.0419 15.0387 51.2831C15.0276 48.5242 17.2626 46.2833 20.0278 46.2723C22.7929 46.2612 25.0389 48.4911 25.05 51.25Z" fill="#FFACA0"></path><path d="M17.7486 49.5639C19.8473 49.1121 21.6442 50.5448 21.7804 52.6608C21.7841 52.9326 21.7914 53.2045 21.7804 53.4726C21.6847 52.9473 21.6184 52.4146 21.4232 51.9187C20.9004 50.317 19.3797 49.5198 17.7449 49.5602L17.7486 49.5639Z" fill="#2C2D40"></path><path d="M18.1868 52.1978C18.7538 51.0957 20.3334 50.699 21.357 51.419C20.2192 51.1141 19.0484 51.397 18.1868 52.1978Z" fill="#2C2D40"></path><path d="M49.4174 61.5142L48.5447 74.842C48.5447 74.842 37.4509 80.2202 28.2349 74.0632L28.3822 56.4446L49.4174 61.5142Z" fill="#FFACA0"></path><path d="M22.0455 48.2891C22.0455 48.2891 20.013 47.1209 20.4806 38.4622C20.9519 29.8035 13.3707 13.9482 41.4311 19.7965C41.4311 19.7965 53.0294 21.6627 53.405 31.8644C53.7989 42.6317 50.7282 47.2054 50.7282 47.2054L22.0455 48.2891Z" fill="#2C2D40"></path><path d="M21.5705 40.174C21.5705 40.174 21.7951 45.1811 21.6847 48.8327C21.4416 56.7052 20.6721 70.4776 35.5032 70.7495C50.3305 71.0213 52.8048 61.2789 51.2326 50.4564C49.9144 41.3789 50.3342 36.3865 50.3342 36.3865C50.3342 36.3865 49.5315 35.1889 47.9225 33.6092C40.7758 26.5853 28.8498 27.5772 23.4041 35.9824C22.5757 37.2608 21.9277 38.6605 21.5742 40.174H21.5705Z" fill="#FFACA0"></path><g style="mix-blend-mode:multiply" opacity="0.19"><path d="M36.0628 68.4498C30.4772 68.8061 25.7385 64.8864 22.5168 61.1136C23.4667 64.5962 25.2856 67.3146 28.2791 69.0706L28.3085 72.3071C36.5525 74.9374 45.2715 72.7847 48.7288 71.2013L49.1412 65.4521C49.734 64.3133 50.8092 63.0312 51.3762 59.2988C48.6368 63.6116 43.6661 67.9612 36.0628 68.4461V68.4498Z" fill="#2C6E7B"></path></g><path d="M42.116 42.2424C41.5674 42.0918 41.3833 41.4085 41.7773 40.9971C42.2964 40.4607 43.1396 39.9501 44.3841 40.2293C46.7111 40.7509 47.0535 42.2424 46.5381 42.8486C46.1699 43.2821 43.5777 42.6428 42.116 42.2424Z" fill="#2C2D40"></path><path d="M25.374 42.9696C24.8328 43.0247 24.4314 42.4847 24.6376 41.9814C24.9101 41.3239 25.4845 40.5781 26.6848 40.3908C28.9345 40.0418 29.7593 41.2504 29.5162 41.9704C29.3432 42.4847 26.8137 42.819 25.374 42.9696Z" fill="#2C2D40"></path><path d="M35.0134 43.1902C35.5437 44.6817 35.8382 46.3495 35.3117 47.8998C34.8662 48.8806 33.8868 49.9864 34.8146 51.004C35.0503 51.3089 35.3485 51.566 35.6357 51.8379C35.3006 51.6321 34.9766 51.4007 34.6821 51.1178C33.5738 50.0415 34.4391 48.8659 34.9656 47.7712C35.4626 46.3238 35.2491 44.6853 35.0098 43.1902H35.0134Z" fill="#2C2D40"></path><path d="M38.4451 27.0115C38.5187 26.6845 33.5038 26.5302 29.7224 29.7373C25.9374 32.9444 32.576 31.7982 32.576 31.7982C32.576 31.7982 27.2481 36.9927 30.7387 35.4094C34.2292 33.826 37.2521 32.2464 38.4451 27.0152V27.0115Z" fill="#2C2D40"></path><path d="M26.2319 46.1437C27.9367 45.1959 29.9986 46.4926 30.7865 48.065C30.4957 47.8078 30.1054 47.4331 29.7998 47.1906C28.8019 46.3861 27.5574 45.8681 26.2319 46.1437Z" fill="#2C2D40"></path><path d="M25.7459 46.9373C26.6553 47.5985 27.6127 48.0393 28.7283 47.7712C27.7783 48.5941 26.2393 47.9953 25.7459 46.9373Z" fill="#2C2D40"></path><path d="M45.9232 46.1437C44.5977 45.8681 43.3531 46.3861 42.3553 47.1906C42.0497 47.4368 41.6594 47.8078 41.3686 48.065C42.1602 46.4926 44.2184 45.1959 45.9232 46.1437Z" fill="#2C2D40"></path><path d="M46.4055 46.9373C45.9121 47.9916 44.3731 48.5941 43.4231 47.7712C44.5387 48.0393 45.4961 47.5985 46.4055 46.9373Z" fill="#2C2D40"></path><path d="M33.3639 57.5834C33.3639 57.5834 36.9281 56.2022 38.5113 57.3851L33.3639 57.5834Z" fill="#2C2D40"></path><path d="M56.1259 66.5473C56.5236 65.7832 57.5951 65.2762 58.0111 64.3836C58.383 63.5864 58.0811 62.4439 58.4456 61.5475C58.7843 60.721 59.8006 60.1185 60.1209 59.2185C60.4191 58.3699 60.0068 57.2641 60.2719 56.3567C60.537 55.4493 61.4759 54.7844 61.6931 53.866C61.9103 52.9476 61.3691 51.93 61.5311 51.0006C61.6931 50.0712 62.551 49.2923 62.6541 48.3593C62.7535 47.4886 62.0871 46.5812 62.1349 45.7583C62.1828 44.884 62.9376 44.0501 62.9303 43.2272C62.9229 42.3492 62.1534 41.5263 62.0981 40.7108C62.0355 39.8291 62.6799 38.9107 62.5694 38.0988C62.4479 37.2172 61.579 36.5045 61.4133 35.711C61.2329 34.8293 61.7447 33.8338 61.5311 33.0623C61.2844 32.177 60.3234 31.5892 60.062 30.8582" stroke="#22386D" stroke-width="0.75" stroke-miterlimit="10"></path><path d="M56.2106 70.2354C56.8808 69.6623 58.1069 69.5521 58.8617 68.8174C59.5207 68.1782 59.668 66.9732 60.3529 66.2128C60.9788 65.5185 62.1718 65.243 62.7867 64.4495C63.3647 63.7037 63.3353 62.4878 63.8839 61.6538C64.4325 60.8199 65.5408 60.4048 66.0121 59.5305C66.4539 58.715 66.1851 57.5908 66.5276 56.8084C66.9031 55.9524 67.912 55.3867 68.1845 54.5821C68.4864 53.6895 68.0261 52.6278 68.2213 51.8086C68.4459 50.8791 69.3296 50.1371 69.4437 49.3215C69.5836 48.3443 68.9245 47.3855 68.9577 46.5957" stroke="#22386D" stroke-width="0.75" stroke-miterlimit="10"></path><path d="M14.8914 31.1667C14.5895 32.019 13.5806 32.717 13.2787 33.7089C13.0099 34.5942 13.4554 35.7294 13.2051 36.7176C12.9768 37.625 12.0379 38.4148 11.839 39.403C11.6513 40.3287 12.2072 41.4161 12.06 42.4043C11.9127 43.3925 11.0695 44.2228 10.9775 45.2146C10.8854 46.2065 11.5555 47.1874 11.5187 48.1793C11.4819 49.1711 10.7344 50.1042 10.7529 51.0961C10.7713 52.0402 11.5518 52.9256 11.6181 53.8182C11.6881 54.7624 11.0548 55.7542 11.1726 56.6396C11.2978 57.58 12.1741 58.3699 12.3472 59.2405C12.5313 60.1773 12.0158 61.239 12.2404 62.0949C12.4797 63.0243 13.4481 63.7039 13.7205 64.5379C14.0225 65.4636 13.6432 66.5767 13.9635 67.3812C14.3317 68.307 15.3774 68.858 15.7346 69.6185" stroke="#22386D" stroke-width="0.75" stroke-miterlimit="10"></path></g></g></g></g></g><defs><clipPath id="clip0_3330_5164"><rect width="72" height="84" fill="white" transform="translate(0.399994)"></rect></clipPath><clipPath id="clip1_3330_5164"><rect width="72" height="71.9868" fill="white" transform="translate(0.799988 12)"></rect></clipPath><clipPath id="clip2_3330_5164"><rect width="72" height="71.9868" fill="white" transform="translate(0.799988 12)"></rect></clipPath><clipPath id="clip3_3330_5164"><rect width="71.027" height="71.9868" fill="white" transform="translate(1.77295 12)"></rect></clipPath></defs></svg>