<svg xmlns="http://www.w3.org/2000/svg" width="20" height="20" viewBox="0 0 20 20" fill="none"><path d="M10 0L10.324 0.00500011C12.9467 0.0900211 15.4309 1.20254 17.2408 3.10261C19.0507 5.00268 20.0412 7.53801 19.9987 10.1618C19.9562 12.7855 18.884 15.2874 17.0136 17.1279C15.1431 18.9683 12.6241 19.9998 10 19.9998C7.3759 19.9998 4.85694 18.9683 2.98645 17.1279C1.11596 15.2874 0.0438303 12.7855 0.00131424 10.1618C-0.0412018 7.53801 0.949302 5.00268 2.75918 3.10261C4.56906 1.20254 7.05328 0.0900211 9.676 0.00500011L10 0ZM10.613 5.21C10.412 5.05459 10.1594 4.98151 9.90648 5.0056C9.65355 5.02969 9.41928 5.14916 9.25125 5.33972C9.08322 5.53029 8.99402 5.77767 9.00177 6.03162C9.00953 6.28557 9.11365 6.52704 9.293 6.707L11.584 9H6L5.883 9.007C5.62991 9.0371 5.39786 9.16271 5.23427 9.35817C5.07068 9.55362 4.98789 9.80416 5.00283 10.0586C5.01777 10.313 5.1293 10.5522 5.31463 10.7272C5.49997 10.9021 5.74512 10.9997 6 11H11.584L9.293 13.293L9.21 13.387C9.05459 13.588 8.98151 13.8406 9.0056 14.0935C9.0297 14.3464 9.14916 14.5807 9.33972 14.7488C9.53029 14.9168 9.77767 15.006 10.0316 14.9982C10.2856 14.9905 10.527 14.8863 10.707 14.707L14.707 10.707L14.78 10.625L14.844 10.536L14.906 10.423L14.95 10.313L14.98 10.201L14.997 10.075L15 10L14.993 9.882L14.964 9.734L14.929 9.629L14.875 9.516L14.804 9.405C14.7745 9.36534 14.742 9.3279 14.707 9.293L10.707 5.293L10.613 5.21Z" fill="#F4F4F4"></path></svg>