<svg xmlns="http://www.w3.org/2000/svg" width="73" height="84" viewBox="0 0 73 84" fill="none"><g clip-path="url(#clip0_3330_3609)"><mask id="mask0_3330_3609" style="mask-type:luminance" maskUnits="userSpaceOnUse" x="0" y="1" width="73" height="83"><path d="M72.0129 48.2264C72.0129 67.9211 56.0965 83.8864 36.4621 83.8864C16.8278 83.8864 0.911407 67.9211 0.911407 48.2264C0.911407 28.5318 16.8278 1.5 36.4621 1.5C56.0965 1.5 72.0129 28.5318 72.0129 48.2264Z" fill="white"></path></mask><g mask="url(#mask0_3330_3609)"><path d="M36.4621 83.8863C56.0963 83.8863 72.0129 67.9208 72.0129 48.2264C72.0129 28.5319 56.0963 12.5664 36.4621 12.5664C16.828 12.5664 0.911407 28.5319 0.911407 48.2264C0.911407 67.9208 16.828 83.8863 36.4621 83.8863Z" fill="#C3CEE8"></path><g clip-path="url(#clip1_3330_3609)"><path d="M11.5321 93.8092C11.5321 93.8092 1.1615 75.4978 5.41273 73.9891C9.66763 72.4767 70.4279 73.4284 76.1906 78.1391C81.9496 82.8497 59.8329 95.1446 59.8329 95.1446L11.5321 93.8129V93.8092Z" fill="#406B9C"></path><path d="M46.8291 50.9449C46.8218 53.5787 48.9437 55.7256 51.5695 55.733C54.1952 55.7403 56.3355 53.6119 56.3429 50.9781C56.3503 48.3442 54.2283 46.201 51.6026 46.19C48.9768 46.1826 46.8365 48.311 46.8291 50.9449Z" fill="#FFD8CD"></path><path d="M53.7686 49.3328C51.8453 49.2849 50.4147 50.41 50.0653 52.3134C50.0175 52.5642 49.9844 52.8151 49.933 53.0696C49.9256 52.8114 49.9293 52.5532 49.933 52.2913C50.0543 50.2624 51.7717 48.8865 53.7686 49.3291V49.3328Z" fill="#231C15"></path><path d="M53.3567 51.8522C52.5293 51.0923 51.426 50.8267 50.3412 51.1071C51.312 50.4099 52.8235 50.7898 53.3567 51.8522Z" fill="#231C15"></path><path d="M24.5874 51.8968C24.5947 54.6081 22.4103 56.814 19.7073 56.8251C17.0043 56.8325 14.8051 54.6413 14.7941 51.93C14.7868 49.2187 16.9712 47.0128 19.6742 47.0017C22.3772 46.9943 24.5764 49.1855 24.5874 51.8968Z" fill="#FFD8CD"></path><path d="M17.4456 50.2368C19.5014 49.7868 21.2629 51.1996 21.3916 53.2838C21.3953 53.5531 21.4027 53.8187 21.3916 54.0843C21.3365 53.8224 21.307 53.5605 21.2556 53.306C20.8988 51.3435 19.4205 50.1852 17.442 50.2368H17.4456Z" fill="#231C15"></path><path d="M17.8722 52.8264C18.4239 51.7382 19.9721 51.3472 20.9724 52.0591C19.8618 51.7604 18.7181 52.0407 17.8722 52.8264Z" fill="#231C15"></path><path d="M48.4289 61.9893L47.5757 75.1031C47.5757 75.1031 36.7196 80.3928 27.7023 74.3358L27.8494 57.002L48.4325 61.9893H48.4289Z" fill="#FFD8CD"></path><path d="M21.649 48.9825C21.649 48.9825 19.6595 47.8316 20.1192 39.3141C20.5789 30.7966 13.165 15.2002 40.6214 20.9548C40.6214 20.9548 51.9703 22.7918 52.3381 32.8291C52.7242 43.4235 49.7197 47.9201 49.7197 47.9201L21.6527 48.9862L21.649 48.9825Z" fill="#FEE08A"></path><path d="M21.182 41C21.182 41 21.4027 45.9246 21.2923 49.5175C21.057 57.264 20.3031 70.8131 34.8146 71.0787C49.3262 71.3443 51.7423 61.7607 50.2051 51.1148C48.9143 42.1841 49.3262 37.2743 49.3262 37.2743C49.3262 37.2743 48.5429 36.0975 46.9652 34.5408C39.9705 27.6316 28.3017 28.6055 22.973 36.8759C22.1639 38.1337 21.5314 39.5097 21.182 41Z" fill="#FFD8CD"></path><g style="mix-blend-mode:multiply" opacity="0.19"><path d="M35.3626 68.8137C29.8978 69.1642 25.2604 65.3093 22.1087 61.5984C23.0392 65.0253 24.8154 67.6997 27.7464 69.4261L27.7758 72.6096C35.8407 75.1991 44.3762 73.078 47.7595 71.5213L48.1604 65.8664C48.7414 64.745 49.7895 63.4834 50.3485 59.813C47.6676 64.0588 42.8059 68.3342 35.3626 68.8137Z" fill="#2C6E7B"></path></g><path d="M41.6769 41.7228C41.14 41.5753 40.9598 40.9039 41.3459 40.4981C41.8534 39.9706 42.6809 39.4689 43.8944 39.7419C46.1745 40.2547 46.5055 41.7228 46.0017 42.3204C45.6413 42.7483 43.1038 42.1212 41.6732 41.7228H41.6769Z" fill="#746332"></path><path d="M24.9036 43.7482C24.3741 43.8035 23.9806 43.2686 24.1829 42.778C24.4513 42.1324 25.0103 41.3947 26.1834 41.2139C28.3863 40.8709 29.1917 42.0587 28.9526 42.7669C28.7834 43.2723 26.3085 43.6006 24.9 43.7482H24.9036Z" fill="#746332"></path><path d="M31.4019 59.2745C35.0831 54.5048 39.7057 58.1604 39.7057 58.1604L31.4019 59.2745Z" fill="#B02B31" fill-opacity="0.3"></path><path d="M34.3365 43.9658C34.8587 45.4303 35.1493 47.0755 34.6307 48.599C34.1968 49.5618 33.2369 50.6463 34.1416 51.6497C34.3696 51.9485 34.6638 52.2067 34.9433 52.4723C34.6123 52.2694 34.2961 52.0444 34.0092 51.7677C32.9244 50.7238 33.7702 49.5396 34.285 48.4736C34.7705 47.0497 34.5609 45.4377 34.3329 43.9695L34.3365 43.9658Z" fill="#231C15"></path><path d="M37.6941 28.0521C37.7677 27.7312 32.8582 27.5762 29.1586 30.7339C25.4553 33.8915 31.9498 32.759 31.9498 32.759C31.9498 32.759 26.7387 37.8681 30.1515 36.3114C33.5679 34.7547 36.5247 33.198 37.6941 28.0521Z" fill="#FEE08A"></path><path d="M25.4259 47.5071C27.0918 46.5665 29.1144 47.8465 29.883 49.3958C29.5999 49.1413 29.2174 48.7761 28.9159 48.5363C27.9376 47.7469 26.724 47.2378 25.4259 47.5071Z" fill="#231C15"></path><path d="M24.9551 48.2891C25.8488 48.9346 26.7792 49.3662 27.8751 49.108C26.9484 49.9232 25.4369 49.333 24.9551 48.2891Z" fill="#231C15"></path><path d="M44.6962 47.5071C43.398 47.2378 42.1844 47.7506 41.2062 48.5363C40.9046 48.7761 40.5258 49.1413 40.239 49.3958C41.0076 47.8465 43.0302 46.5665 44.6962 47.5071Z" fill="#231C15"></path><path d="M45.1706 48.2891C44.6888 49.333 43.1773 49.9232 42.2506 49.108C43.3465 49.3662 44.2733 48.9346 45.1706 48.2891Z" fill="#231C15"></path><path d="M19.3128 11.8591C21.3674 11.8716 24.1278 12.4285 27.5345 13.6199H27.5364C35.1982 16.3953 42.3789 20.5345 48.6302 25.7712L49.2327 26.282L49.2346 26.2839C50.3285 27.2631 52.286 29.0411 53.7747 30.9734C54.5187 31.9391 55.1513 32.9514 55.4993 33.9275C55.8473 34.9036 55.9165 35.8618 55.5032 36.7019L55.4983 36.7107L55.4925 36.7195C54.9676 37.4969 54.1029 37.912 53.0852 38.0925C52.0679 38.273 50.8797 38.2232 49.677 38.0535C47.2705 37.7138 44.767 36.8902 43.3831 36.4275L43.3802 36.4265C35.4789 33.5875 28.0605 29.3251 21.6223 23.9207L21.6214 23.9197C18.8836 21.5747 17.0145 19.4678 15.969 17.696C14.9286 15.9328 14.6806 14.4583 15.2766 13.4167C15.8729 12.375 17.2679 11.8468 19.3128 11.8591ZM19.4231 12.4714C17.4682 12.4232 16.2775 12.8939 15.7981 13.7214C15.3186 14.5493 15.5009 15.8205 16.513 17.5017C17.5189 19.1726 19.3188 21.2021 21.97 23.5066C28.3396 28.891 35.6853 33.1757 43.5003 36.0691C44.8855 36.5378 47.3498 37.3567 49.7112 37.699C50.892 37.8701 52.0379 37.9207 53.0061 37.7537C53.9721 37.587 54.7428 37.2063 55.2073 36.533C55.5465 35.7975 55.4849 34.9452 55.1429 34.031C54.7977 33.1086 54.1745 32.1413 53.4309 31.2048C51.9456 29.3341 50.002 27.6154 48.9104 26.6589L48.3059 26.1638C42.0311 21.0836 34.8826 17.023 27.3138 14.2449C24.0123 13.08 21.3665 12.5195 19.4231 12.4714Z" fill="#FD651D" stroke="#FA7500" stroke-width="0.3"></path><path d="M50.1739 11.905C52.1444 11.6983 53.8654 11.8897 55.0245 12.7292L55.2491 12.906L55.2569 12.9128L55.2637 12.9207C55.855 13.5919 56.0255 14.3792 55.9249 15.199C55.8249 16.0132 55.4579 16.8618 54.9727 17.6755C54.0024 19.303 52.5333 20.8348 51.6631 21.7371L51.6583 21.7419C44.8524 28.2764 36.4967 33.1407 27.6954 36.4148L27.6915 36.4167C26.2742 36.8961 23.7574 37.7288 21.3292 38.0837C20.1152 38.2612 18.9137 38.3206 17.879 38.1521C16.8446 37.9836 15.9583 37.5841 15.4014 36.8279L15.3936 36.8171V36.8162C14.9912 36.1556 14.9651 35.3765 15.1622 34.574C15.3591 33.7718 15.7826 32.9309 16.3008 32.1287C17.3377 30.5238 18.7751 29.0408 19.6329 28.2751L19.6339 28.2742H19.6348L19.8467 28.4861L19.8331 28.4998C19.8302 28.5024 19.8272 28.5049 19.8243 28.5076C18.9133 29.4156 17.2209 31.2049 16.2198 32.9978C15.7143 33.903 15.3968 34.7898 15.4278 35.5544C15.4432 35.9337 15.5441 36.2817 15.7501 36.5896C15.9554 36.8966 16.2708 37.1716 16.7266 37.3982C18.2878 37.9669 20.1986 37.8761 22.1241 37.5037C24.0484 37.1314 25.9658 36.4827 27.5313 35.9568C36.2424 32.6649 44.5246 27.7986 51.2188 21.2898C52.0165 20.4564 53.3895 19.0046 54.3194 17.4832C54.7852 16.7211 55.1329 15.9518 55.2462 15.2419C55.3581 14.54 55.2409 13.9038 54.7881 13.3806C53.9928 12.6946 52.892 12.4798 51.7178 12.4871C50.5431 12.4943 49.3235 12.7222 48.3087 12.8962L48.3096 12.8972C42.3821 14.165 36.7966 16.8034 31.5557 19.8425L31.5567 19.8435C30.7915 20.3085 28.7359 21.5554 27.9454 22.0349L27.8292 22.1052L27.7471 21.9958L27.7256 21.9666L27.629 21.8376L27.7647 21.7507C28.5551 21.2455 30.5628 19.9616 31.3282 19.4744L31.7696 19.196C34.1262 17.74 38.6637 15.3534 43.2081 13.6931C45.6315 12.8077 48.0646 12.1264 50.1739 11.905Z" fill="#FD651D" stroke="#FA7500" stroke-width="0.3"></path><path d="M36.0282 10.2717L36.5136 11.2603L37.5985 11.419L36.8115 12.1862L36.9991 13.2707L36.0282 12.758L35.0537 13.2707L35.2412 12.1862L34.4542 11.419L35.5391 11.2603L36.0282 10.2717Z" fill="#FA7500"></path><path d="M16.1916 22.5076L16.8131 23.7655L18.1958 23.9683L17.1955 24.9496L17.4309 26.3329L16.1916 25.68L14.9522 26.3329L15.1913 24.9496L14.1873 23.9683L15.5737 23.7655L16.1916 22.5076Z" fill="#FA7500"></path><path d="M36.7306 21.1538L37.536 22.7953L39.3453 23.0572L38.0361 24.3373L38.3451 26.1411L36.7306 25.289L35.1125 26.1411L35.4214 24.3373L34.1122 23.0572L35.9216 22.7953L36.7306 21.1538Z" fill="#FA7500"></path><path d="M46.0605 31.5674L46.5276 32.5191L47.5757 32.6703L46.8181 33.4118L46.9983 34.4557L46.0605 33.9651L45.1228 34.4557L45.303 33.4118L44.5454 32.6703L45.5935 32.5191L46.0605 31.5674Z" fill="#FA7500"></path></g></g></g><defs><clipPath id="clip0_3330_3609"><rect width="72" height="84" fill="white" transform="translate(0.199951)"></rect></clipPath><clipPath id="clip1_3330_3609"><rect width="70.9412" height="73.4231" fill="white" transform="translate(0.699707 10.0127)"></rect></clipPath></defs></svg>