<svg xmlns="http://www.w3.org/2000/svg" width="72" height="84" viewBox="0 0 72 84" fill="none"><g clip-path="url(#clip0_3330_3547)"><path d="M36.0025 83.9961C55.8848 83.9961 72.0025 67.8783 72.0025 47.9961C72.0025 28.1138 55.8848 11.9961 36.0025 11.9961C16.1203 11.9961 0.00253296 28.1138 0.00253296 47.9961C0.00253296 67.8783 16.1203 83.9961 36.0025 83.9961Z" fill="#D5D9EE"></path><g clip-path="url(#clip1_3330_3547)"><path d="M7.5994 57.3989C7.51372 57.4516 7.42145 57.5043 7.37531 57.5966C7.33576 57.6823 7.34236 57.7878 7.36213 57.8866C7.51372 58.7039 8.10032 59.4355 8.86487 59.765C9.84693 60.1935 12.7799 59.9628 13.6565 59.6266C14.0322 59.4816 14.3881 59.2707 14.7638 59.1257C15.6866 58.7896 16.7477 58.7698 17.71 58.6314C19.4039 58.3809 21.1505 58.3348 22.7851 57.8339C23.9253 57.4846 25.138 57.0298 25.5665 56.2586C26.3508 54.8284 26.6935 52.8181 26.9242 51.4934C27.1681 50.129 27.5635 48.791 27.8667 47.4333C27.9458 47.0774 28.0249 46.6951 27.8931 46.3524C27.7876 46.0756 27.5503 45.8712 27.3197 45.6867C26.3574 44.9353 25.2303 44.408 24.0373 44.1576C23.9055 44.1312 23.7605 44.1049 23.6419 44.1708C23.5232 44.2301 23.5167 44.1708 23.4903 44.296C22.8641 46.8401 22.6137 52.014 21.5723 53.4311C20.5903 54.7625 13.4456 57.3462 12.6811 57.0759C10.0183 56.14 8.41669 56.9309 7.60599 57.3989H7.5994Z" fill="#E3A094"></path><path d="M63.9722 57.3989C64.0579 57.4516 64.1501 57.5043 64.1963 57.5966C64.2358 57.6823 64.2292 57.7878 64.2094 57.8866C64.0579 58.7039 63.4713 59.4355 62.7067 59.765C61.7246 60.1935 58.7917 59.9628 57.9151 59.6266C57.5394 59.4816 57.1835 59.2707 56.8078 59.1257C55.885 58.7896 54.8239 58.7698 53.8616 58.6314C52.1677 58.3809 50.4211 58.3348 48.7865 57.8339C47.6463 57.4846 46.4335 57.0298 46.0051 56.2586C45.2208 54.8284 44.8781 52.8181 44.6474 51.4934C44.4035 50.129 44.0081 48.791 43.7049 47.4333C43.6258 47.0774 43.5467 46.6951 43.6785 46.3524C43.784 46.0756 44.0212 45.8712 44.2519 45.6867C45.2142 44.9353 46.3413 44.408 47.5342 44.1576C47.6661 44.1312 47.8111 44.1049 47.9297 44.1708C48.0483 44.2301 48.0549 44.1708 48.0813 44.296C48.7074 46.8401 48.9579 52.014 49.9993 53.4311C50.9813 54.7625 58.126 57.3462 58.8905 57.0759C61.5533 56.14 63.1549 56.9309 63.9656 57.3989H63.9722Z" fill="#E3A094"></path><path d="M25.9158 62.9616L24.7096 64.9653C24.7096 64.9653 31.1293 71.4376 35.1432 71.9913C39.1571 72.5449 47.6858 65.7694 47.6858 65.7694L45.379 62.5596L25.9158 62.9616Z" fill="#DBA200"></path><path d="M37.7598 20.3707C37.7598 20.3707 35.4266 17.8133 32.2695 19.6918C29.1058 21.5702 30.0879 27.2187 28.5851 29.0971C27.0824 30.9756 24.1428 30.5999 24.6701 34.2908C25.1974 37.9752 30.0879 41.6661 37.3907 40.3875C44.6869 39.1088 47.2508 35.5695 47.1717 32.6365C47.0926 29.7035 43.4083 27.8185 42.7294 25.8609C42.0505 23.9034 40.9235 20.8188 39.948 20.3707C38.9725 19.9225 37.7664 20.3707 37.7664 20.3707H37.7598Z" fill="#2C2D40"></path><path d="M48.4174 44.7969C48.4174 44.7969 48.5163 41.7057 46.6642 38.7266C45.1483 36.2945 44.2849 36.0704 42.7558 35.9452C40.8773 35.7936 37.8784 36.3736 37.8784 36.3736H33.2911C33.2911 36.3736 30.6151 35.6222 28.5324 35.9715C27.3196 36.1758 26.4365 36.2945 24.9205 38.7331C23.0619 41.7123 23.1673 44.8035 23.1673 44.8035L27.5833 46.7083C27.5833 46.7083 28.7894 54.1824 28.8356 55.4875C28.8883 56.7925 25.4742 63.0605 25.4742 63.0605C25.4742 63.0605 28.3742 66.6262 35.7957 66.356C43.2171 66.6262 46.1172 63.0605 46.1172 63.0605C46.1172 63.0605 42.703 56.7925 42.7558 55.4875C42.8085 54.1824 44.008 46.7083 44.008 46.7083L48.424 44.8035L48.4174 44.7969Z" fill="#FA7500"></path><path d="M40.1655 23.0794C40.1655 23.0794 38.9594 20.6737 35.5782 20.7462C32.1904 20.8187 30.4636 23.7583 30.7602 27.1395C31.0634 30.5273 33.0934 33.5328 36.0264 33.5328C38.9594 33.5328 40.7653 29.7693 40.8444 27.0604C40.9169 24.3515 40.1655 23.0729 40.1655 23.0729V23.0794Z" fill="#E3A094"></path><path d="M44.0015 36.4198C43.9026 36.0705 39.7371 35.6685 38.8341 34.8116C37.9312 33.9614 38.3134 31.7007 38.3134 31.7007L35.7034 32.1027L33.1922 31.7007C33.1922 31.7007 33.647 33.9614 32.7441 34.8116C31.8411 35.6619 27.6756 36.0639 27.5767 36.4198C27.4844 36.756 30.5295 39.3594 35.4134 39.5637C35.4134 39.5637 35.4134 39.5769 35.42 39.5835C35.5452 39.5835 35.6639 39.5769 35.7825 39.5769C35.9077 39.5769 36.0264 39.5901 36.145 39.5835C36.145 39.5835 36.145 39.5703 36.1516 39.5637C41.0355 39.3594 44.0872 36.756 43.9883 36.4198H44.0015Z" fill="#E3A094"></path><path d="M37.3973 20.7926C38.3727 23.1522 39.7371 25.347 41.4244 27.2715C41.5825 25.9072 41.4244 24.4901 40.8312 23.251C40.238 22.0119 39.1966 20.964 37.9048 20.496C37.4566 20.3312 36.9886 20.239 36.5141 20.1862C35.7166 20.0939 34.9059 20.1137 34.1281 20.3049C32.6847 20.6542 31.3863 21.5967 30.6151 22.8622C30.1274 23.6597 29.8506 24.5824 29.7979 25.5117C29.7781 25.8281 29.6858 26.7179 29.9033 26.9684C30.1538 27.2584 30.6283 26.8168 30.9513 26.6322C32.5595 25.6897 34.1018 24.6022 35.42 23.2774C36.1713 22.526 36.8436 21.6956 37.3973 20.7926Z" fill="#2C2D40"></path><path d="M35.8484 76.1041C35.8484 76.1041 30.4306 77.1587 27.4185 77.3103C24.4064 77.4619 22.706 77.4091 22.2512 75.8537C21.7964 74.2982 23.4046 73.1448 25.3621 72.4395C27.3197 71.7343 36.2966 72.8416 36.2966 72.8416L35.8418 76.1041H35.8484Z" fill="#E3A094"></path><path d="M56.9462 59.2508C54.1845 58.6511 49.1424 63.3636 46.4863 65.2684C43.8301 67.1732 35.3475 72.591 35.3475 72.591L34.9718 73.1776C35.0113 73.8235 35.1102 74.4694 35.3014 75.0692C35.4464 75.524 35.6573 75.9722 35.9736 76.3281C35.9934 76.3479 36.0132 76.3611 36.0329 76.3808C37.193 76.2292 41.7539 75.6031 47.6858 73.3424C54.0066 70.9367 57.5196 67.4237 58.9762 64.8136C60.4328 62.2036 59.7012 59.844 56.9462 59.2442V59.2508Z" fill="#FFC10E"></path><path d="M34.4445 71.2136C34.4445 71.2136 35.6507 71.965 38.5837 71.965C41.5167 71.965 45.2801 71.5102 46.862 72.4923C48.4438 73.4677 48.4438 74.6014 45.4317 75.9525C42.4196 77.3103 40.9169 77.0071 38.5837 76.5523C36.2505 76.1041 32.5661 74.3707 32.5661 74.3707L34.4445 71.207V71.2136Z" fill="#E3A094"></path><path d="M35.1234 70.9894C35.1234 70.9894 35.3475 72.1165 34.7477 73.3952C34.1479 74.6738 33.6206 75.2011 33.6206 75.2011C33.6206 75.2011 20.3003 72.0374 15.937 67.2985C11.5738 62.5596 12.022 60.4504 14.7309 59.0202C17.4398 57.5899 29.2574 67.0744 30.9843 68.5046C32.7177 69.9349 35.1234 70.9894 35.1234 70.9894Z" fill="#FFC10E"></path></g></g><defs><clipPath id="clip0_3330_3547"><rect width="72" height="84" fill="white"></rect></clipPath><clipPath id="clip1_3330_3547"><rect width="56.8788" height="58.3641" fill="white" transform="translate(7.34641 19.0027)"></rect></clipPath></defs></svg>