<svg xmlns="http://www.w3.org/2000/svg" width="73" height="84" viewBox="0 0 73 84" fill="none"><g clip-path="url(#clip0_3330_3478)"><path d="M36.5335 83.9526C56.2314 83.9526 72.3325 67.8455 72.4962 47.9763C72.66 28.1071 56.8244 12 37.1265 12C17.4285 12 1.32747 28.1071 1.16373 47.9763C0.999987 67.8455 16.8356 83.9526 36.5335 83.9526Z" fill="#C7EEFC"></path><mask id="mask0_3330_3478" style="mask-type:luminance" maskUnits="userSpaceOnUse" x="1" y="12" width="72" height="72"><path d="M36.5335 83.9526C56.2314 83.9526 72.3325 67.8455 72.4962 47.9763C72.66 28.1071 56.8244 12 37.1265 12C17.4285 12 1.32747 28.1071 1.16373 47.9763C0.999987 67.8455 16.8356 83.9526 36.5335 83.9526Z" fill="white"></path></mask><g mask="url(#mask0_3330_3478)"><path d="M59.5563 81.763C59.5563 71.5748 51.3965 63.3167 41.3296 63.3167H23.1505C13.0836 63.3167 4.92381 71.5748 4.92381 81.763V92.1097H13.7783L13.3356 131.422H51.1513L50.7086 92.1097H59.5631V81.763H59.5563Z" fill="white"></path><path d="M34.7295 73.8634C31.4329 73.8634 28.7629 71.1612 28.7629 67.8249V54.2039H40.6961V67.8249C40.6961 71.1612 38.0262 73.8634 34.7295 73.8634Z" fill="#E8724D"></path><path d="M36.3642 64.8815C29.4236 64.9091 23.784 59.236 23.7567 52.2186L23.675 34.9442L48.8014 34.8477L48.8832 52.1221C48.9104 59.1463 43.3048 64.854 36.371 64.8815H36.3642Z" fill="#F99273"></path><path d="M46.3358 32.1248L35.0837 24.749L32.1754 24.7697C25.7184 24.818 20.5146 30.1533 20.5555 36.6881L20.6236 46.0147L24.9351 46.0009L24.8806 39.8866C24.8738 37.9703 26.4063 36.4055 28.2998 36.3986L46.4448 36.309C47.6095 36.309 48.5426 35.3302 48.5086 34.1376C48.4677 32.9933 47.4801 32.111 46.3426 32.1179L46.3358 32.1248Z" fill="#2C2D40"></path><path d="M28.4837 47.2486C28.4905 49.8612 26.4131 51.9843 23.8317 51.9981C21.2502 52.005 19.1524 49.9025 19.1387 47.29C19.1319 44.6775 21.2093 42.5543 23.7908 42.5405C26.3722 42.5337 28.4701 44.6361 28.4837 47.2486Z" fill="#F99273"></path><path d="M23.8249 50.0816C22.2923 50.0816 21.0391 48.8339 21.0391 47.283C21.0391 45.732 22.2719 44.4636 23.8044 44.4636" stroke="#2C2D40" stroke-width="0.75" stroke-linecap="round" stroke-linejoin="round"></path><path d="M34.3076 24.7783L56.0823 24.6091L56.0958 26.3944C56.1371 31.833 51.8116 36.2784 46.4377 36.3202L27.7075 36.4658L27.6705 31.5924C27.6422 27.8564 30.616 24.807 34.3008 24.7784L34.3076 24.7783Z" fill="#2C2D40"></path><path d="M47.7049 27.2237L32.1209 33.6275L30.8608 30.5255C29.8936 28.1474 31.0243 25.4245 33.3741 24.4457L50.8993 17.2354L51.3625 18.3727C52.7656 21.84 51.1309 25.8037 47.6981 27.2237H47.7049Z" fill="#2C2D40"></path><path d="M37.3655 42.3889L37.8286 52.6185L35.6559 51.4604" stroke="#2C2D40" stroke-width="0.75" stroke-linecap="round" stroke-linejoin="round"></path><path d="M29.4918 57.5608C29.4918 57.5608 33.4831 56.7129 37.3042 57.5746" stroke="#2C2D40" stroke-width="0.75" stroke-linecap="round" stroke-linejoin="round"></path><path d="M44.851 40.1691C43.6863 40.9825 42.2695 41.4513 40.7506 41.5202C40.015 41.5547 39.4361 42.1061 39.4225 42.7748C39.4225 43.0919 39.5451 43.3952 39.7903 43.6296C40.0831 43.9122 40.4986 44.0569 40.9345 44.0225C41.6974 43.9673 42.433 43.8432 43.1482 43.6364C44.3129 43.3056 45.3959 42.7817 46.3562 42.0786C46.6627 41.8511 46.8467 41.5271 46.8671 41.1756C46.8875 40.8447 46.7513 40.5276 46.4993 40.2932C46.0429 39.8796 45.3482 39.8245 44.851 40.1691Z" fill="#2C2D40"></path><path d="M29.6144 40.2382C30.8131 41.0034 32.2435 41.417 33.7624 41.417C34.498 41.417 35.0974 41.9477 35.1382 42.6164C35.1587 42.9335 35.0361 43.2368 34.8045 43.4849C34.5184 43.7813 34.1097 43.9399 33.6806 43.9261C32.9178 43.9054 32.1754 43.8089 31.4534 43.6297C30.275 43.3471 29.1716 42.8714 28.1908 42.2097C27.8775 41.996 27.68 41.6789 27.6459 41.3273C27.6187 40.9965 27.7345 40.6725 27.9729 40.4312C28.4156 39.997 29.1035 39.9142 29.6144 40.2382Z" fill="#2C2D40"></path><path d="M30.6428 45.8491C30.6428 46.4971 31.1605 47.021 31.8007 47.021C32.441 47.021 32.9586 46.4971 32.9586 45.8491H30.6496H30.6428Z" fill="#2C2D40"></path><path d="M40.703 45.8491C40.703 46.4971 41.2206 47.021 41.8609 47.021C42.5011 47.021 43.0188 46.4971 43.0188 45.8491H40.7098H40.703Z" fill="#2C2D40"></path></g></g><defs><clipPath id="clip0_3330_3478"><rect width="72" height="84" fill="white" transform="translate(0.799988)"></rect></clipPath></defs></svg>