<svg xmlns="http://www.w3.org/2000/svg" width="73" height="84" viewBox="0 0 73 84" fill="none"><g clip-path="url(#clip0_3330_3696)"><path d="M72.6 48C72.6 28.1177 56.4822 12.0077 36.6 12.0172C16.7177 12.0267 0.599973 28.1522 0.599974 48.0344C0.599975 67.9167 16.7177 84.0267 36.6 84.0172C56.4822 84.0077 72.6 67.8823 72.6 48Z" fill="#E3EBFA"></path><g clip-path="url(#clip1_3330_3696)"><mask id="mask0_3330_3696" style="mask-type:luminance" maskUnits="userSpaceOnUse" x="0" y="12" width="73" height="72"><path d="M72.6 47.9828C72.6 28.11 56.4822 12.0077 36.6 12.0172C16.7177 12.0267 0.599973 28.1445 0.599974 48.0172C0.599975 67.89 16.7177 83.9923 36.6 83.9828C56.4822 83.9733 72.6 67.8555 72.6 47.9828Z" fill="white"></path></mask><g mask="url(#mask0_3330_3696)"><path d="M51.0772 53.5303C51.0772 53.5303 53.4836 47.1258 54.2107 43.8501C54.9379 40.5744 55.6563 34.8008 53.2153 35.5355C50.7656 36.2701 50.5405 40.5225 50.2289 41.672C49.9086 42.8302 48.6016 46.7887 48.6016 46.7887L46.9223 49.6063C46.576 50.1854 45.8749 50.4188 45.2603 50.1595C44.7409 49.9348 44.4033 49.4076 44.438 48.8285C44.6111 45.2848 45.1478 33.0117 44.5245 30.2114C43.7974 26.9356 42.2133 25.9676 40.8543 26.8406C39.4953 27.7135 39.452 29.4681 39.5819 31.551C39.7204 33.6254 39.8502 42.8648 39.8502 42.8648L39.4953 47.1344C39.4434 47.7308 38.8807 48.1284 38.3181 47.9815C37.9372 47.8777 37.6515 47.5407 37.6169 47.1344C37.4351 44.9132 36.8465 37.8 36.8119 35.475C36.7686 32.7006 35.9982 24.9045 35.3663 23.9797C34.7344 23.0549 31.5576 22.545 31.3326 25.3626C31.1075 28.1802 31.2893 40.7818 31.6009 42.6746C31.8173 43.9884 31.9731 46.4862 32.051 47.8864C32.077 48.4482 31.6528 48.9322 31.0988 48.9581C30.6487 48.984 30.2332 48.6988 30.0947 48.258C29.3763 45.9936 27.2382 39.2001 26.9352 37.3678C26.5717 35.1552 25.8446 29.4248 24.5375 28.4136C23.2218 27.3937 21.1876 27.9987 21.2308 30.583C21.2741 33.1673 24.624 49.8311 24.9876 51.5856C25.3512 53.3401 25.6195 59.9866 25.3079 61.6029C25.178 62.2684 24.7712 62.9858 24.3384 63.6081C23.7065 64.5156 22.434 64.6539 21.6463 63.876C20.4258 62.6746 18.7725 60.8423 18.331 59.2952C17.6039 56.7541 13.6221 50.7991 10.7656 53.1586C10.2202 54.4032 10.9041 55.6997 10.9041 55.6997C10.9041 55.6997 16.747 68.1197 18.7812 71.1621C20.8153 74.2131 27.3421 78.2926 28.6838 79.6928C30.3111 82.3894 30.1813 85.0947 30.1813 85.0947L47.961 84.6885C47.961 84.6885 48.0389 80.6003 48.6016 78.0333C49.095 75.7948 49.4845 73.997 50.0818 72.3721C52.3237 66.2528 51.0859 53.513 51.0859 53.513L51.0772 53.5303Z" fill="#FFACA0"></path><path d="M46.6539 28.0679C46.9309 28.7766 45.1218 29.0532 45.3209 30.0471C45.4074 30.462 47.2685 30.6781 47.3378 31.2658C47.3897 31.7152 45.6498 32.3894 45.6844 32.9512C45.7104 33.4179 47.5369 33.8587 47.5369 34.4032C47.5369 34.8786 45.7364 35.3799 45.7277 35.9158C45.7104 36.3998 47.4849 36.9961 47.4503 37.5234C47.4157 38.0074 45.5806 38.3704 45.5286 38.8976" stroke="#22386D" stroke-width="0.75" stroke-miterlimit="10"></path><path d="M29.4715 25.6392C29.7658 26.3392 27.9654 26.6677 28.1904 27.653C28.2856 28.0679 30.1467 28.2321 30.2419 28.8198C30.3112 29.2692 28.58 29.9866 28.6319 30.5484C28.6752 31.0151 30.5016 31.4041 30.5276 31.9486C30.5449 32.4239 28.7617 32.9685 28.7531 33.5043C28.7531 33.9883 30.5449 34.5329 30.5189 35.0687C30.5016 35.5527 28.6752 35.959 28.6319 36.4862" stroke="#22386D" stroke-width="0.75" stroke-miterlimit="10"></path><path d="M56.8875 46.0146C57.0989 47.4605 55.5038 47.5625 55.6287 49.5357C55.6767 50.3521 57.291 51.2366 57.3295 52.3933C57.3583 53.2948 55.8017 54.1623 55.8017 55.268C55.8017 56.1865 57.3679 57.4792 57.3487 58.5508C57.3295 59.4864 55.7344 60.0137 55.696 61.0513C55.6575 61.9868 57.1757 63.5857 57.1181 64.6063C57.0604 65.5418 55.4461 65.797 55.3693 66.8006" stroke="#22386D" stroke-width="0.75" stroke-miterlimit="10"></path><path d="M21.0728 42.1463C21.4938 43.4155 19.8529 43.7025 20.2627 45.4586C20.4394 46.1843 22.2449 46.7813 22.4434 47.8169C22.5968 48.6242 21.1028 49.5942 21.2578 50.5735C21.3904 51.3995 23.2151 52.3695 23.3425 53.3215C23.4658 54.1646 21.8672 54.8211 21.9694 55.7612C22.0696 56.6076 23.8864 57.8449 23.9632 58.773C24.0404 59.6228 22.3829 60.0374 22.4575 60.9502" stroke="#22386D" stroke-width="0.75" stroke-miterlimit="10"></path><path d="M8.95643 53.9797C9.38058 54.6107 8.27259 55.0428 8.73137 55.9417C8.9218 56.3134 10.2375 56.3306 10.4799 56.8752C10.6703 57.29 9.73548 58.0852 9.94323 58.5951C10.1164 59.0273 11.4754 59.252 11.6658 59.7533C11.8303 60.1941 10.8002 60.8337 10.9647 61.335C11.1205 61.7844 12.4968 62.1561 12.6526 62.6573C12.7911 63.1154 11.6918 63.6254 11.8303 64.118" stroke="#22386D" stroke-width="0.75" stroke-miterlimit="10"></path></g></g></g><defs><clipPath id="clip0_3330_3696"><rect width="72" height="84" fill="white" transform="translate(0.599976)"></rect></clipPath><clipPath id="clip1_3330_3696"><rect width="72" height="71" fill="white" transform="translate(0.599976 12.8308)"></rect></clipPath></defs></svg>