<svg xmlns="http://www.w3.org/2000/svg" width="73" height="84" viewBox="0 0 73 84" fill="none"><g clip-path="url(#clip0_3328_3419)"><g clip-path="url(#clip1_3328_3419)"><mask id="mask0_3328_3419" style="mask-type:luminance" maskUnits="userSpaceOnUse" x="0" y="0" width="72" height="84"><path d="M72 47.2813C72 67.2099 55.8825 83.3648 36 83.3648C16.1175 83.3648 0 67.2099 0 47.2813C0 27.3528 16.1175 0 36 0C55.8825 0 72 27.3528 72 47.2813Z" fill="white"></path></mask><g mask="url(#mask0_3328_3419)"><path d="M36.2 84.3648C55.9718 84.3648 72 68.2994 72 48.4818C72 28.6641 55.9718 12.5988 36.2 12.5988C16.4281 12.5988 0.399902 28.6641 0.399902 48.4818C0.399902 68.2994 16.4281 84.3648 36.2 84.3648Z" fill="#FFE4BC"></path><path d="M44.7694 22.1682C32.3559 16.2254 17.3611 26.6076 16.0983 33.5786C14.8318 40.5532 14.9392 43.1924 14.2022 44.1427C13.4652 45.0929 7.98431 49.5324 8.088 50.271C8.19169 51.0097 12.832 54.0757 12.832 54.0757C12.832 54.0757 12.632 56.069 12.7616 58.6191C13.8356 58.0734 14.8429 57.3979 15.7428 56.5924C15.8835 56.4662 16.1205 56.34 16.2353 56.4922C16.2835 56.5516 16.2835 56.6369 16.2798 56.7112C16.2538 57.1492 16.1094 57.5686 15.9353 57.9695C15.3243 59.38 14.3096 60.6087 13.0542 61.4884C13.5097 64.38 14.5318 67.3198 16.7353 68.6561C21.794 71.7184 28.4378 68.5522 28.4378 68.5522C28.4378 68.5522 29.0859 78.9826 25.8158 86.9818L51.4132 86.5141C46.9655 74.7102 45.8656 64.2055 45.8656 64.2055C45.8656 64.2055 57.7533 59.6362 58.7976 46.9155C59.8457 34.191 55.7165 27.4057 44.7768 22.1682H44.7694Z" fill="#FF90B3"></path><path d="M32.0115 40.9652C27.5416 36.9378 23.0532 32.9178 18.3759 29.1391C19.4869 27.7657 20.9423 26.4145 22.6458 25.197C34.7816 34.5956 45.162 46.2658 53.0908 59.4245C52.6131 60.011 52.1243 60.5752 51.6317 61.1283C45.9916 53.6599 38.9812 47.2532 32.0078 40.9689L32.0115 40.9652Z" fill="#69CDFF"></path><path d="M22.6495 25.1971C28.4415 21.0583 36.7073 18.46 44.6435 21.693C55.872 26.2698 60.7641 35.2229 59.3791 46.908C58.7939 51.8486 55.9276 55.9577 53.0945 59.4209C45.1657 46.2622 34.7853 34.5919 22.6495 25.1934V25.1971Z" fill="#4492FF"></path><path d="M16.3279 32.6877C16.7057 31.5445 17.4093 30.3344 18.3796 29.1392C23.0569 32.9179 27.5453 36.9379 32.0152 40.9653C38.9886 47.2496 45.999 53.6563 51.6391 61.1247C51.0836 61.7483 50.5244 62.3496 49.9763 62.9324C40.5958 51.0209 29.1599 40.75 16.3353 32.6877H16.3279Z" fill="#92E4FF"></path><path d="M43.988 52.5464C43.44 54.7958 41.892 56.7817 39.844 57.8581C39.2034 58.1959 38.496 58.4483 37.7739 58.4298C36.1444 58.3889 34.8075 56.9153 34.4668 55.3155C34.1224 53.7157 34.5742 52.049 35.2186 50.5457C36.0481 48.6006 37.4702 46.6185 39.5626 46.3364C42.9326 45.8872 44.6695 49.7551 43.9918 52.5427L43.988 52.5464Z" fill="#FF90B3"></path><g style="mix-blend-mode:multiply" opacity="0.56"><path d="M36.0592 56.2621C36.7888 56.1173 37.4739 55.7609 38.0146 55.2487C38.122 55.1448 38.2294 55.0297 38.2664 54.8849C38.3405 54.6065 38.1479 54.3393 37.9627 54.1166C37.5961 53.6711 37.2258 53.222 36.8591 52.7766C36.7851 52.6875 36.711 52.5947 36.6888 52.4796C36.6666 52.3534 36.7147 52.2272 36.7629 52.1121C37.3739 50.6125 38.0849 49.0016 39.4996 48.2221C39.8811 48.0105 40.3143 47.8694 40.7513 47.9028C41.3957 47.9548 41.966 48.3891 42.329 48.9236C42.6956 49.4618 42.8882 50.0929 43.0622 50.7202C43.0622 50.7202 43.0807 54.0609 40.5958 55.8278C38.1109 57.5946 36.0518 56.2583 36.0518 56.2583L36.0592 56.2621Z" fill="#FF90B3"></path></g><path d="M43.0696 50.7202C41.1254 45.8613 38.3034 49.1574 37.1258 52.4091C37.2332 52.5984 37.7405 53.2071 37.9479 53.5152C38.1516 53.8085 38.4219 54.0869 38.5405 54.4543C38.8812 55.5456 36.8628 56.2398 36.0629 56.2583C36.8147 55.9725 37.5294 55.5197 37.9775 54.8923C38.0183 54.7995 38.0072 54.7587 37.9627 54.6622C37.8739 54.484 37.6072 54.2279 37.385 53.9792C36.9925 53.5226 36.6962 53.2925 36.3407 52.7506C36.1962 52.5019 36.274 52.1307 36.3703 51.9191C36.6147 51.2918 36.874 50.6571 37.211 50.0372C38.97 46.7336 42.6363 46.47 43.0696 50.7127V50.7202Z" fill="#223A80"></path><path d="M44.1177 50.2598C44.8361 53.8046 42.2993 58.0177 38.5775 58.426C38.0553 58.4594 37.5258 58.4074 37.048 58.2255C38.0664 58.2998 39.0219 58.0176 39.8663 57.5537C42.4475 56.0837 43.9103 53.1885 44.1177 50.2635V50.2598Z" fill="#223A80"></path><path d="M26.7269 44.9593C25.6677 43.044 24.1197 41.4887 22.2125 40.4753C21.2978 39.9928 20.2757 39.8443 19.3313 39.4508C18.3759 39.0722 17.3982 38.7456 16.2576 38.2519L16.2427 38.0477C17.8722 37.1197 19.9572 37.168 21.5755 38.0551C23.1383 38.9757 24.5641 40.1635 25.5492 41.6928C26.1899 42.6839 26.6713 43.7678 26.9194 44.8851L26.7269 44.9593Z" fill="#223A80"></path><path d="M13.0172 52.6913C13.4986 52.8843 13.9578 53.1664 14.3652 53.5264L14.0763 53.5895C14.2763 53.1404 14.3874 52.6356 14.3911 52.1196C14.5022 52.6244 14.5059 53.1627 14.4022 53.6935L14.3355 54.0201C13.9393 53.5413 13.5578 53.0439 13.0172 52.6913Z" fill="#223A80"></path><g style="mix-blend-mode:multiply" opacity="0.19"><path d="M28.4415 68.5522C31.1931 67.1713 33.3039 64.5582 34.0742 61.5701C33.8743 63.6079 33.5002 65.5678 32.567 67.3866C31.6337 69.2055 30.1895 70.8053 28.3415 71.6739" fill="#2C6E7B"></path></g><path d="M51.9354 77.019C53.3575 75.0183 54.2166 72.5796 54.1463 70.1223C54.0759 67.665 53.0242 65.2114 51.154 63.6265C48.7727 67.8321 48.9468 73.2255 51.9391 77.019H51.9354Z" fill="#4492FF"></path><path d="M64.3156 68.27C63.0268 66.1802 61.1159 64.443 58.831 63.5559C56.546 62.6687 53.8796 62.691 51.6946 63.8046C54.6388 67.6353 59.6642 69.5655 64.3156 68.27Z" fill="#4492FF"></path><path d="M50.5837 65.1372C51.6758 65.1372 52.5612 64.2497 52.5612 63.155C52.5612 62.0603 51.6758 61.1729 50.5837 61.1729C49.4915 61.1729 48.6061 62.0603 48.6061 63.155C48.6061 64.2497 49.4915 65.1372 50.5837 65.1372Z" fill="#223A80"></path><path d="M21.4163 46.637C20.272 48.3965 17.613 49.3244 15.7613 48.1144L15.7724 48.0216C16.3057 47.8174 16.8094 47.7692 17.2982 47.7209C17.7833 47.6689 18.2537 47.7692 18.7277 47.7246C19.6943 47.6355 20.609 47.2309 21.3459 46.5776L21.4163 46.637Z" fill="#223A80"></path><path d="M17.0167 47.8026L18.124 43.8271L17.4167 47.8954L17.0167 47.8026Z" fill="#223A80"></path><path d="M30.0006 21.5C41.1105 29.1428 49.8837 40.208 54.8721 52.7468L55.809 55.2784C55.3091 54.0237 54.2277 51.559 53.6463 50.3415C48.2654 39.0016 40.0292 29.0203 29.9969 21.5H30.0006Z" fill="#223A80"></path><path d="M42.9844 21.0806C50.0208 28.9981 55.2239 38.6008 58.0755 48.8048L58.6051 50.8575L57.9718 48.8345C54.724 38.779 49.5912 29.3136 42.9844 21.0769V21.0806Z" fill="#223A80"></path><path d="M51.5021 66.2434C51.7206 68.4297 51.8613 70.5604 51.9243 72.7578C51.2984 70.6569 51.154 68.4112 51.5021 66.2434Z" fill="#223A80"></path><path d="M54.924 64.4282C57.1756 64.3132 59.4976 64.9999 61.327 66.3213C59.2161 65.5047 57.1385 64.8885 54.924 64.4282Z" fill="#223A80"></path></g></g></g><defs><clipPath id="clip0_3328_3419"><rect width="72" height="84" fill="white" transform="translate(0.199951)"></rect></clipPath><clipPath id="clip1_3328_3419"><rect width="72" height="84" fill="white" transform="translate(0.199951)"></rect></clipPath></defs></svg>