<svg xmlns="http://www.w3.org/2000/svg" width="73" height="84" viewBox="0 0 73 84" fill="none"><g clip-path="url(#clip0_3325_3410)"><path d="M36.8 84.1668C56.6822 84.1668 72.8 68.0117 72.8 48.0834C72.8 28.1551 56.6822 12 36.8 12C16.9177 12 0.799988 28.1551 0.799988 48.0834C0.799988 68.0117 16.9177 84.1668 36.8 84.1668Z" fill="#C8EAF0"></path><path d="M21.5641 44.8247C21.6804 45.3982 21.6265 45.9852 21.3989 46.5671C20.9927 47.6142 20.0555 48.6071 18.53 49.6035C17.5726 50.2277 16.9405 50.8874 16.6977 51.5133C16.5494 51.8973 16.546 52.2847 16.691 52.6636C17.222 54.049 19.6964 55.3617 22.0917 54.9777C23.3239 54.7798 24.1498 54.1623 24.5459 53.1423C24.6976 52.7515 24.787 52.3016 24.8123 51.8043C24.8763 50.5525 25.055 49.568 25.355 48.7915C25.6719 47.9728 26.1388 47.3689 26.744 46.9934C28.5172 45.8955 30.931 46.9612 33.7275 48.1944C34.8501 48.6883 36.1092 49.2432 37.3785 49.6695C37.4628 48.9218 37.5353 48.147 37.6061 47.3689C37.8336 44.9059 38.0662 42.3669 38.7371 40.6364C39.1872 39.4759 39.8108 38.735 40.6469 38.3764C41.9667 37.808 43.6052 38.3223 45.6565 39.9462C46.7573 40.819 48.4395 41.565 50.2111 40.161C50.9022 39.6129 51.4719 38.8247 51.8141 37.9433C52.2085 36.9233 52.2507 35.8948 51.9253 35.1928C51.305 33.8548 49.5132 33.9157 48.1192 34.2015C45.2807 34.7868 43.7771 34.6058 43.0944 33.601C42.4758 32.6859 42.8854 31.6286 43.0202 31.2801C43.2849 30.6001 43.7518 29.7679 44.3148 28.8629C41.5049 29.9709 38.2415 32.1852 36.797 34.5889C34.9108 31.4493 29.918 28.6294 26.8906 28.1828C19.3728 26.8735 12.7736 30.5342 10.5419 38.6047C14.4677 39.5267 20.8915 41.5244 21.5641 44.8247Z" fill="#FFD44C"></path><path d="M19.9594 45.1546C20.1903 46.2863 18.825 47.4501 17.6366 48.2265C14.5739 50.2243 14.7728 52.2339 15.1621 53.254C16.0285 55.5122 19.388 57.077 22.3513 56.6033C24.8257 56.2075 26.3192 54.4888 26.449 51.8888C26.5468 49.9858 26.9361 48.8101 27.607 48.394C28.6453 47.7512 30.7945 48.6985 33.0684 49.7016C34.3124 50.2497 35.7064 50.862 37.1442 51.3238C37.156 51.2849 37.1661 51.246 37.1796 51.2088C37.2369 51.0633 37.3178 50.9297 37.4122 50.8062C37.3347 50.5779 37.301 50.3326 37.3313 50.0805C37.3482 49.9452 37.3633 49.8082 37.3785 49.6712C36.1092 49.2449 34.8501 48.69 33.7275 48.1961C30.931 46.9629 28.5172 45.8989 26.744 46.9951C26.1405 47.3706 25.6719 47.9762 25.355 48.7932C25.0533 49.5697 24.8763 50.5542 24.8123 51.806C24.787 52.3033 24.6976 52.7532 24.5459 53.144C24.1498 54.164 23.3256 54.7815 22.0917 54.9794C19.6964 55.3634 17.222 54.0507 16.691 52.6653C16.546 52.2864 16.5477 51.9007 16.6977 51.515C16.9405 50.8891 17.5726 50.2294 18.53 49.6052C20.0555 48.6088 20.9927 47.6159 21.3989 46.5688C21.6248 45.9852 21.6804 45.3982 21.5641 44.8264C20.8915 41.5261 14.4677 39.5284 10.5419 38.6064C10.4862 38.8061 10.4323 39.004 10.3817 39.2087C10.3008 39.5402 10.2334 39.8718 10.1693 40.2033C15.7015 41.4889 19.6037 43.4241 19.9577 45.1563L19.9594 45.1546Z" fill="white"></path><path d="M29.886 68.2229C31.6053 67.712 33.4291 69.4391 34.6512 70.7806C35.9963 72.259 37.2976 72.6599 38.5146 71.9698C39.2445 71.557 39.9069 70.7265 40.2879 69.7453C40.6722 68.7541 40.748 67.7442 40.5019 66.9034C39.9878 65.1476 38.25 64.8735 36.8846 64.9547C35.2243 65.0512 33.2167 64.9903 32.4059 63.6539C31.8261 62.6981 32.1413 61.6003 32.4295 60.8577C32.8408 59.7971 33.5791 58.552 34.2921 57.3476C35.172 55.8624 36.084 54.3248 36.6807 52.782C36.8661 52.3016 37.0127 51.8432 37.1155 51.4169C37.124 51.3848 37.1358 51.3543 37.1459 51.3222C35.7081 50.8604 34.3141 50.248 33.0701 49.6999C30.7962 48.6968 28.647 47.7495 27.6087 48.3923C26.9395 48.8085 26.5501 49.9841 26.4507 51.8872C26.3209 54.4872 24.8257 56.2058 22.353 56.6016C19.3896 57.077 16.0302 55.5123 15.1638 53.2523C14.7728 52.2323 14.5755 50.2226 17.6383 48.2249C18.825 47.4484 20.192 46.2846 19.9611 45.1529C19.6088 43.4207 15.7049 41.4856 10.1727 40.2C7.77578 52.7347 17.2439 64.5792 27.7166 71.036C27.7857 70.811 27.8582 70.5928 27.9374 70.3898C28.1093 69.9466 28.6335 68.595 29.8893 68.2195L29.886 68.2229Z" fill="#0C96E4"></path><path d="M43.0927 33.6011C43.7771 34.6076 45.2807 34.7869 48.1175 34.2016C49.5115 33.914 51.3033 33.8531 51.9237 35.1928C52.249 35.8949 52.2068 36.9233 51.8124 37.9434C51.4702 38.8247 50.9005 39.613 50.2094 40.1611C48.4378 41.5651 46.7556 40.8191 45.6549 39.9462C43.6035 38.3206 41.9651 37.808 40.6452 38.3764C39.8108 38.7367 39.1855 39.476 38.7354 40.6364C38.0645 42.3686 37.8302 44.906 37.6044 47.3689C37.5319 48.1471 37.4611 48.9201 37.3768 49.6695C37.3616 49.8065 37.3465 49.9435 37.3296 50.0789C37.2993 50.3309 37.333 50.5762 37.4105 50.8046C37.5471 50.6253 37.7156 50.4713 37.9179 50.3614C38.2399 50.1837 38.6107 50.1228 38.968 50.1821C39.0709 49.3227 39.1535 48.4245 39.2377 47.5229C39.5411 44.2293 39.8833 40.4977 41.2925 39.8887C41.9887 39.5893 43.1467 40.0562 44.6401 41.2386C46.8179 42.9674 49.2182 43.0452 51.2258 41.4534C52.1428 40.726 52.8946 39.6925 53.3396 38.5405C53.9026 37.0908 53.9278 35.6174 53.4087 34.501C52.9232 33.4556 51.5494 31.8181 47.7872 32.5929C44.8373 33.2001 44.4598 32.6977 44.4446 32.6758C44.099 32.1632 45.6852 29.7273 46.6983 28.1846C45.9886 28.2894 45.1711 28.5263 44.3114 28.8646C43.7501 29.7696 43.2815 30.6019 43.0169 31.2819C42.882 31.6287 42.4724 32.6859 43.091 33.6027L43.0927 33.6011Z" fill="white"></path><path d="M44.4463 32.6741C44.4614 32.6961 44.839 33.1985 47.7888 32.5912C51.5511 31.8165 52.9266 33.4539 53.4104 34.4993C53.9278 35.6158 53.9026 37.0892 53.3413 38.5388C52.8946 39.6891 52.1445 40.7244 51.2275 41.4518C49.2182 43.0436 46.8179 42.9657 44.6418 41.2369C43.1484 40.0545 41.9903 39.5876 41.2942 39.887C39.8833 40.4943 39.5411 44.2277 39.2394 47.5212C39.1568 48.4245 39.0725 49.3228 38.9697 50.1804C39.0607 50.1956 39.1518 50.2159 39.2394 50.2464C40.9638 50.8401 42.5938 51.7147 44.0333 52.486C45.7425 53.4012 47.6826 54.4398 48.3215 54.0372C48.3653 54.0102 48.4985 53.9256 48.635 53.5754C48.8609 52.9935 48.9502 52.0615 48.903 50.8046C48.8659 49.8962 48.9856 49.0809 49.2553 48.3822C49.7745 47.0425 50.8263 46.1426 52.2945 45.7755C55.0875 45.0819 58.7875 46.6517 59.9084 49.0081C60.3585 49.9537 60.3972 50.9653 60.0213 51.9363C59.6741 52.8328 58.9965 53.6566 57.9497 54.4551C56.6585 55.4362 56.2708 56.0858 56.1545 56.3852C56.0804 56.5763 56.0888 56.688 56.1023 56.7573C56.222 57.4001 57.4879 58.0159 59.042 58.5673C62.8852 52.7973 64.8692 46.0867 63.2105 39.2087C61.1473 30.7152 54.4049 26.8415 46.7016 28.1829C45.6886 29.7256 44.1024 32.1632 44.448 32.6741H44.4463Z" fill="#74B8FC"></path><path d="M30.3529 69.7995C30.6327 69.7166 31.494 69.7522 33.4409 71.8903C35.971 74.6696 38.2095 74.0319 39.3203 73.4043C40.3856 72.8021 41.2942 71.6857 41.815 70.3425C42.3308 69.0129 42.4218 67.6275 42.0746 66.44C41.4459 64.2917 39.5192 63.1516 36.7885 63.314C34.459 63.4493 33.9264 62.9993 33.805 62.7997C33.3819 62.1028 34.6124 60.0255 35.6996 58.1901C36.8661 56.2211 38.1792 54.0051 38.7084 51.8027C40.3047 52.3524 41.8673 53.1898 43.2613 53.9358C45.7678 55.2789 47.7484 56.3378 49.193 55.4311C50.2127 54.79 50.6392 53.2997 50.5414 50.742C50.4656 48.8796 51.1904 47.7462 52.6906 47.3741C54.7386 46.8649 57.6379 48.0473 58.4335 49.7186C58.9678 50.8418 58.4722 51.9938 56.9619 53.1458C55.0757 54.5786 54.2683 55.8608 54.4942 57.0635C54.7386 58.3728 56.1225 59.2355 58.0626 59.968C58.4015 59.5079 58.7285 59.041 59.0437 58.569C57.4912 58.0176 56.2236 57.4018 56.104 56.759C56.0922 56.6914 56.0821 56.578 56.1562 56.3869C56.2725 56.0875 56.6602 55.4379 57.9514 54.4568C58.9982 53.66 59.6758 52.8362 60.023 51.938C60.3989 50.9687 60.3601 49.9554 59.9101 49.0098C58.7891 46.6535 55.0875 45.0837 52.2962 45.7772C50.8263 46.1426 49.7762 47.0442 49.257 48.384C48.9873 49.0826 48.8676 49.8979 48.9047 50.8063C48.9536 52.0615 48.8626 52.9935 48.6367 53.5771C48.5002 53.9273 48.367 54.0119 48.3232 54.039C47.6826 54.4416 45.7442 53.4029 44.035 52.4878C42.5955 51.7164 40.9655 50.8418 39.2411 50.2481C39.1534 50.2176 39.0624 50.1973 38.9714 50.1821C38.614 50.1246 38.2432 50.1838 37.9213 50.3614C37.7207 50.4714 37.5504 50.627 37.4139 50.8046C37.3195 50.9281 37.2386 51.0601 37.1813 51.2072C37.1661 51.2444 37.1577 51.285 37.1459 51.3223C37.1358 51.3544 37.124 51.3848 37.1155 51.417C37.0127 51.8433 36.8678 52.3034 36.6807 52.7821C36.0823 54.3248 35.172 55.8625 34.2921 57.3477C33.5791 58.5521 32.8391 59.7971 32.4295 60.8578C32.1413 61.6004 31.8261 62.6982 32.4059 63.654C33.2167 64.9903 35.226 65.0512 36.8846 64.9548C38.2516 64.8736 39.9878 65.146 40.5019 66.9035C40.748 67.7442 40.6722 68.7541 40.2879 69.7454C39.9069 70.7265 39.2445 71.5588 38.5146 71.9698C37.2976 72.6583 35.9963 72.2574 34.6512 70.7807C33.4291 69.4375 31.6053 67.7121 29.886 68.223C28.6302 68.5985 28.1076 69.9484 27.934 70.3933C27.8565 70.5946 27.784 70.8128 27.7132 71.0395C28.197 71.3372 28.6824 71.6231 29.1679 71.8988C29.473 70.7874 29.8522 69.9501 30.3512 69.8012L30.3529 69.7995Z" fill="white"></path><path d="M58.061 59.9663C56.1208 59.2355 54.7369 58.3728 54.4925 57.0618C54.2667 55.8591 55.0741 54.5768 56.9603 53.1441C58.4706 51.9938 58.9661 50.8418 58.4318 49.7169C57.6362 48.0456 54.7386 46.8632 52.6889 47.3723C51.1887 47.7445 50.4656 48.8779 50.5398 50.7403C50.6375 53.298 50.2111 54.7883 49.1913 55.4294C47.7484 56.3378 45.7678 55.2772 43.2596 53.934C41.8656 53.1864 40.303 52.3507 38.7068 51.8009C38.1775 54.0034 36.8661 56.2177 35.698 58.1884C34.6107 60.0238 33.3802 62.101 33.8033 62.798C33.9247 62.9976 34.4573 63.4476 36.7869 63.3122C39.5176 63.1515 41.4442 64.29 42.0729 66.4383C42.4202 67.6258 42.3292 69.0112 41.8134 70.3408C41.2925 71.6839 40.3823 72.8004 39.3186 73.4026C38.2095 74.0302 35.9693 74.6679 33.4392 71.8886C31.494 69.7504 30.631 69.7149 30.3512 69.7978C29.8506 69.9467 29.473 70.784 29.1679 71.8954C31.7334 73.3434 34.3276 74.4598 36.7953 75.1754C44.1328 73.0457 52.5928 67.3805 58.061 59.9629V59.9663Z" fill="#FA7500"></path></g><defs><clipPath id="clip0_3325_3410"><rect width="72" height="84" fill="white" transform="translate(0.799988)"></rect></clipPath></defs></svg>